<mxfile host="Electron" modified="2022-02-18T20:59:12.155Z" agent="5.0 (Windows NT 10.0; Win64; x64) AppleWebKit/537.36 (KHTML, like Gecko) draw.io/16.5.1 Chrome/96.0.4664.110 Electron/16.0.7 Safari/537.36" etag="3znTp5dsi3LK-MxF_T33" compressed="false" version="16.5.1" type="device">
  <diagram name="Final Proposal" id="BK-lWE6LYYnoOY9xP9cv">
    <mxGraphModel dx="3652" dy="-235" grid="1" gridSize="10" guides="1" tooltips="1" connect="1" arrows="1" fold="1" page="1" pageScale="1" pageWidth="850" pageHeight="1100" math="0" shadow="0">
      <root>
        <mxCell id="KwM0fEK1zE-uCKd_Dp6U-0" />
        <mxCell id="KwM0fEK1zE-uCKd_Dp6U-1" parent="KwM0fEK1zE-uCKd_Dp6U-0" />
        <mxCell id="KwM0fEK1zE-uCKd_Dp6U-2" value="" style="rounded=0;whiteSpace=wrap;html=1;fontSize=16;" parent="KwM0fEK1zE-uCKd_Dp6U-1" vertex="1">
          <mxGeometry x="-2125" y="1760" width="2550" height="880" as="geometry" />
        </mxCell>
        <mxCell id="KwM0fEK1zE-uCKd_Dp6U-4" value="Customer" style="shape=table;startSize=30;container=1;collapsible=1;childLayout=tableLayout;fixedRows=1;rowLines=0;fontStyle=1;align=center;resizeLast=1;labelBorderColor=none;fontSize=16;" parent="KwM0fEK1zE-uCKd_Dp6U-1" vertex="1">
          <mxGeometry x="-2005" y="1930" width="355" height="250" as="geometry" />
        </mxCell>
        <mxCell id="KwM0fEK1zE-uCKd_Dp6U-5" value="" style="shape=tableRow;horizontal=0;startSize=0;swimlaneHead=0;swimlaneBody=0;fillColor=none;collapsible=0;dropTarget=0;points=[[0,0.5],[1,0.5]];portConstraint=eastwest;top=0;left=0;right=0;bottom=1;labelBorderColor=none;fontSize=16;" parent="KwM0fEK1zE-uCKd_Dp6U-4" vertex="1">
          <mxGeometry y="30" width="355" height="40" as="geometry" />
        </mxCell>
        <mxCell id="KwM0fEK1zE-uCKd_Dp6U-6" value="PK" style="shape=partialRectangle;connectable=0;fillColor=none;top=0;left=0;bottom=0;right=0;fontStyle=1;overflow=hidden;labelBorderColor=none;fontSize=16;" parent="KwM0fEK1zE-uCKd_Dp6U-5" vertex="1">
          <mxGeometry width="35" height="40" as="geometry">
            <mxRectangle width="35" height="40" as="alternateBounds" />
          </mxGeometry>
        </mxCell>
        <mxCell id="KwM0fEK1zE-uCKd_Dp6U-7" value="CustomerID" style="shape=partialRectangle;connectable=0;fillColor=none;top=0;left=0;bottom=0;right=0;align=left;spacingLeft=6;fontStyle=5;overflow=hidden;labelBorderColor=none;fontSize=16;" parent="KwM0fEK1zE-uCKd_Dp6U-5" vertex="1">
          <mxGeometry x="35" width="140" height="40" as="geometry">
            <mxRectangle width="140" height="40" as="alternateBounds" />
          </mxGeometry>
        </mxCell>
        <mxCell id="KwM0fEK1zE-uCKd_Dp6U-8" value="int NOT NULL" style="shape=partialRectangle;connectable=0;fillColor=none;top=0;left=0;bottom=0;right=0;align=left;spacingLeft=6;fontStyle=1;overflow=hidden;labelBorderColor=none;fontSize=16;" parent="KwM0fEK1zE-uCKd_Dp6U-5" vertex="1">
          <mxGeometry x="175" width="180" height="40" as="geometry">
            <mxRectangle width="180" height="40" as="alternateBounds" />
          </mxGeometry>
        </mxCell>
        <mxCell id="KwM0fEK1zE-uCKd_Dp6U-9" value="" style="shape=tableRow;horizontal=0;startSize=0;swimlaneHead=0;swimlaneBody=0;fillColor=none;collapsible=0;dropTarget=0;points=[[0,0.5],[1,0.5]];portConstraint=eastwest;top=0;left=0;right=0;bottom=0;labelBorderColor=none;fontSize=16;" parent="KwM0fEK1zE-uCKd_Dp6U-4" vertex="1">
          <mxGeometry y="70" width="355" height="30" as="geometry" />
        </mxCell>
        <mxCell id="KwM0fEK1zE-uCKd_Dp6U-10" value="" style="shape=partialRectangle;connectable=0;fillColor=none;top=0;left=0;bottom=0;right=0;editable=1;overflow=hidden;labelBorderColor=none;fontSize=16;" parent="KwM0fEK1zE-uCKd_Dp6U-9" vertex="1">
          <mxGeometry width="35" height="30" as="geometry">
            <mxRectangle width="35" height="30" as="alternateBounds" />
          </mxGeometry>
        </mxCell>
        <mxCell id="KwM0fEK1zE-uCKd_Dp6U-11" value="FullName" style="shape=partialRectangle;connectable=0;fillColor=none;top=0;left=0;bottom=0;right=0;align=left;spacingLeft=6;overflow=hidden;labelBorderColor=none;fontSize=16;" parent="KwM0fEK1zE-uCKd_Dp6U-9" vertex="1">
          <mxGeometry x="35" width="140" height="30" as="geometry">
            <mxRectangle width="140" height="30" as="alternateBounds" />
          </mxGeometry>
        </mxCell>
        <mxCell id="KwM0fEK1zE-uCKd_Dp6U-12" value="varchar(500) NULL" style="shape=partialRectangle;connectable=0;fillColor=none;top=0;left=0;bottom=0;right=0;align=left;spacingLeft=6;overflow=hidden;labelBorderColor=none;fontSize=16;" parent="KwM0fEK1zE-uCKd_Dp6U-9" vertex="1">
          <mxGeometry x="175" width="180" height="30" as="geometry">
            <mxRectangle width="180" height="30" as="alternateBounds" />
          </mxGeometry>
        </mxCell>
        <mxCell id="KwM0fEK1zE-uCKd_Dp6U-101" value="" style="shape=tableRow;horizontal=0;startSize=0;swimlaneHead=0;swimlaneBody=0;fillColor=none;collapsible=0;dropTarget=0;points=[[0,0.5],[1,0.5]];portConstraint=eastwest;top=0;left=0;right=0;bottom=0;labelBorderColor=none;fontSize=16;" parent="KwM0fEK1zE-uCKd_Dp6U-4" vertex="1">
          <mxGeometry y="100" width="355" height="30" as="geometry" />
        </mxCell>
        <mxCell id="KwM0fEK1zE-uCKd_Dp6U-102" value="" style="shape=partialRectangle;connectable=0;fillColor=none;top=0;left=0;bottom=0;right=0;editable=1;overflow=hidden;labelBorderColor=none;fontSize=16;" parent="KwM0fEK1zE-uCKd_Dp6U-101" vertex="1">
          <mxGeometry width="35" height="30" as="geometry">
            <mxRectangle width="35" height="30" as="alternateBounds" />
          </mxGeometry>
        </mxCell>
        <mxCell id="KwM0fEK1zE-uCKd_Dp6U-103" value="PhoneNumber" style="shape=partialRectangle;connectable=0;fillColor=none;top=0;left=0;bottom=0;right=0;align=left;spacingLeft=6;overflow=hidden;labelBorderColor=none;fontSize=16;" parent="KwM0fEK1zE-uCKd_Dp6U-101" vertex="1">
          <mxGeometry x="35" width="140" height="30" as="geometry">
            <mxRectangle width="140" height="30" as="alternateBounds" />
          </mxGeometry>
        </mxCell>
        <mxCell id="KwM0fEK1zE-uCKd_Dp6U-104" value="varchar(31) NULL" style="shape=partialRectangle;connectable=0;fillColor=none;top=0;left=0;bottom=0;right=0;align=left;spacingLeft=6;overflow=hidden;labelBorderColor=none;fontSize=16;" parent="KwM0fEK1zE-uCKd_Dp6U-101" vertex="1">
          <mxGeometry x="175" width="180" height="30" as="geometry">
            <mxRectangle width="180" height="30" as="alternateBounds" />
          </mxGeometry>
        </mxCell>
        <mxCell id="KwM0fEK1zE-uCKd_Dp6U-105" value="" style="shape=tableRow;horizontal=0;startSize=0;swimlaneHead=0;swimlaneBody=0;fillColor=none;collapsible=0;dropTarget=0;points=[[0,0.5],[1,0.5]];portConstraint=eastwest;top=0;left=0;right=0;bottom=0;labelBorderColor=none;fontSize=16;" parent="KwM0fEK1zE-uCKd_Dp6U-4" vertex="1">
          <mxGeometry y="130" width="355" height="30" as="geometry" />
        </mxCell>
        <mxCell id="KwM0fEK1zE-uCKd_Dp6U-106" value="" style="shape=partialRectangle;connectable=0;fillColor=none;top=0;left=0;bottom=0;right=0;editable=1;overflow=hidden;labelBorderColor=none;fontSize=16;" parent="KwM0fEK1zE-uCKd_Dp6U-105" vertex="1">
          <mxGeometry width="35" height="30" as="geometry">
            <mxRectangle width="35" height="30" as="alternateBounds" />
          </mxGeometry>
        </mxCell>
        <mxCell id="KwM0fEK1zE-uCKd_Dp6U-107" value="Email" style="shape=partialRectangle;connectable=0;fillColor=none;top=0;left=0;bottom=0;right=0;align=left;spacingLeft=6;overflow=hidden;labelBorderColor=none;fontSize=16;" parent="KwM0fEK1zE-uCKd_Dp6U-105" vertex="1">
          <mxGeometry x="35" width="140" height="30" as="geometry">
            <mxRectangle width="140" height="30" as="alternateBounds" />
          </mxGeometry>
        </mxCell>
        <mxCell id="KwM0fEK1zE-uCKd_Dp6U-108" value="varchar(500) NULL" style="shape=partialRectangle;connectable=0;fillColor=none;top=0;left=0;bottom=0;right=0;align=left;spacingLeft=6;overflow=hidden;labelBorderColor=none;fontSize=16;" parent="KwM0fEK1zE-uCKd_Dp6U-105" vertex="1">
          <mxGeometry x="175" width="180" height="30" as="geometry">
            <mxRectangle width="180" height="30" as="alternateBounds" />
          </mxGeometry>
        </mxCell>
        <mxCell id="KwM0fEK1zE-uCKd_Dp6U-17" value="" style="shape=tableRow;horizontal=0;startSize=0;swimlaneHead=0;swimlaneBody=0;fillColor=none;collapsible=0;dropTarget=0;points=[[0,0.5],[1,0.5]];portConstraint=eastwest;top=0;left=0;right=0;bottom=0;labelBorderColor=none;fontSize=16;" parent="KwM0fEK1zE-uCKd_Dp6U-4" vertex="1">
          <mxGeometry y="160" width="355" height="30" as="geometry" />
        </mxCell>
        <mxCell id="KwM0fEK1zE-uCKd_Dp6U-18" value="FK" style="shape=partialRectangle;connectable=0;fillColor=none;top=0;left=0;bottom=0;right=0;editable=1;overflow=hidden;labelBorderColor=none;fontSize=16;" parent="KwM0fEK1zE-uCKd_Dp6U-17" vertex="1">
          <mxGeometry width="35" height="30" as="geometry">
            <mxRectangle width="35" height="30" as="alternateBounds" />
          </mxGeometry>
        </mxCell>
        <mxCell id="KwM0fEK1zE-uCKd_Dp6U-19" value="DeliveryLocation" style="shape=partialRectangle;connectable=0;fillColor=none;top=0;left=0;bottom=0;right=0;align=left;spacingLeft=6;overflow=hidden;labelBorderColor=none;fontSize=16;" parent="KwM0fEK1zE-uCKd_Dp6U-17" vertex="1">
          <mxGeometry x="35" width="140" height="30" as="geometry">
            <mxRectangle width="140" height="30" as="alternateBounds" />
          </mxGeometry>
        </mxCell>
        <mxCell id="KwM0fEK1zE-uCKd_Dp6U-20" value="int NULL" style="shape=partialRectangle;connectable=0;fillColor=none;top=0;left=0;bottom=0;right=0;align=left;spacingLeft=6;overflow=hidden;labelBorderColor=none;fontSize=16;" parent="KwM0fEK1zE-uCKd_Dp6U-17" vertex="1">
          <mxGeometry x="175" width="180" height="30" as="geometry">
            <mxRectangle width="180" height="30" as="alternateBounds" />
          </mxGeometry>
        </mxCell>
        <mxCell id="KwM0fEK1zE-uCKd_Dp6U-21" style="shape=tableRow;horizontal=0;startSize=0;swimlaneHead=0;swimlaneBody=0;fillColor=none;collapsible=0;dropTarget=0;points=[[0,0.5],[1,0.5]];portConstraint=eastwest;top=0;left=0;right=0;bottom=0;labelBorderColor=none;fontSize=16;" parent="KwM0fEK1zE-uCKd_Dp6U-4" vertex="1">
          <mxGeometry y="190" width="355" height="30" as="geometry" />
        </mxCell>
        <mxCell id="KwM0fEK1zE-uCKd_Dp6U-22" value="FK" style="shape=partialRectangle;connectable=0;fillColor=none;top=0;left=0;bottom=0;right=0;editable=1;overflow=hidden;labelBorderColor=none;fontSize=16;" parent="KwM0fEK1zE-uCKd_Dp6U-21" vertex="1">
          <mxGeometry width="35" height="30" as="geometry">
            <mxRectangle width="35" height="30" as="alternateBounds" />
          </mxGeometry>
        </mxCell>
        <mxCell id="KwM0fEK1zE-uCKd_Dp6U-23" value="FavoraiteCakeID" style="shape=partialRectangle;connectable=0;fillColor=none;top=0;left=0;bottom=0;right=0;align=left;spacingLeft=6;overflow=hidden;labelBorderColor=none;fontSize=16;" parent="KwM0fEK1zE-uCKd_Dp6U-21" vertex="1">
          <mxGeometry x="35" width="140" height="30" as="geometry">
            <mxRectangle width="140" height="30" as="alternateBounds" />
          </mxGeometry>
        </mxCell>
        <mxCell id="KwM0fEK1zE-uCKd_Dp6U-24" value="int NULL" style="shape=partialRectangle;connectable=0;fillColor=none;top=0;left=0;bottom=0;right=0;align=left;spacingLeft=6;overflow=hidden;labelBorderColor=none;fontSize=16;" parent="KwM0fEK1zE-uCKd_Dp6U-21" vertex="1">
          <mxGeometry x="175" width="180" height="30" as="geometry">
            <mxRectangle width="180" height="30" as="alternateBounds" />
          </mxGeometry>
        </mxCell>
        <mxCell id="KwM0fEK1zE-uCKd_Dp6U-245" style="edgeStyle=orthogonalEdgeStyle;rounded=1;orthogonalLoop=1;jettySize=auto;html=1;exitX=1;exitY=0.5;exitDx=0;exitDy=0;startArrow=ERmandOne;startFill=0;endArrow=ERoneToMany;endFill=0;strokeColor=#E5CCFF;fontSize=16;" parent="KwM0fEK1zE-uCKd_Dp6U-4" source="KwM0fEK1zE-uCKd_Dp6U-105" target="KwM0fEK1zE-uCKd_Dp6U-105" edge="1">
          <mxGeometry relative="1" as="geometry" />
        </mxCell>
        <mxCell id="KwM0fEK1zE-uCKd_Dp6U-26" value="All Prices are Excl. VAT" style="shape=note;size=13;whiteSpace=wrap;html=1;fontSize=16;" parent="KwM0fEK1zE-uCKd_Dp6U-1" vertex="1">
          <mxGeometry x="-2050" y="1790" width="100" height="80" as="geometry" />
        </mxCell>
        <mxCell id="KwM0fEK1zE-uCKd_Dp6U-27" style="edgeStyle=orthogonalEdgeStyle;rounded=1;orthogonalLoop=1;jettySize=auto;html=1;fontSize=16;startArrow=ERmandOne;startFill=0;endArrow=ERoneToMany;endFill=0;strokeColor=#33FF33;entryX=0;entryY=0.5;entryDx=0;entryDy=0;strokeWidth=2;jumpStyle=none;targetPerimeterSpacing=0;endSize=10;startSize=10;" parent="KwM0fEK1zE-uCKd_Dp6U-1" source="KwM0fEK1zE-uCKd_Dp6U-5" target="KwM0fEK1zE-uCKd_Dp6U-130" edge="1">
          <mxGeometry relative="1" as="geometry">
            <Array as="points">
              <mxPoint x="-1600" y="1980" />
              <mxPoint x="-1600" y="2019" />
            </Array>
          </mxGeometry>
        </mxCell>
        <mxCell id="KwM0fEK1zE-uCKd_Dp6U-28" value="&lt;i style=&quot;font-size: 16px;&quot;&gt;Italics &lt;/i&gt;indicate a calculated field" style="shape=note;size=13;whiteSpace=wrap;html=1;fontSize=16;" parent="KwM0fEK1zE-uCKd_Dp6U-1" vertex="1">
          <mxGeometry x="-1920" y="1790" width="125" height="80" as="geometry" />
        </mxCell>
        <mxCell id="KwM0fEK1zE-uCKd_Dp6U-119" style="edgeStyle=orthogonalEdgeStyle;rounded=1;orthogonalLoop=1;jettySize=auto;html=1;fontSize=16;startArrow=ERmandOne;startFill=0;endArrow=ERoneToMany;endFill=0;strokeColor=#FF0000;strokeWidth=2;endSize=10;startSize=10;" parent="KwM0fEK1zE-uCKd_Dp6U-1" source="KwM0fEK1zE-uCKd_Dp6U-111" target="KwM0fEK1zE-uCKd_Dp6U-17" edge="1">
          <mxGeometry relative="1" as="geometry">
            <Array as="points">
              <mxPoint x="-2045" y="2265" />
              <mxPoint x="-2045" y="2105" />
            </Array>
          </mxGeometry>
        </mxCell>
        <mxCell id="KwM0fEK1zE-uCKd_Dp6U-122" style="edgeStyle=orthogonalEdgeStyle;rounded=1;orthogonalLoop=1;jettySize=auto;html=1;fontSize=16;startArrow=ERzeroToMany;startFill=0;endArrow=ERmandOne;endFill=0;strokeColor=#9933FF;strokeWidth=2;endSize=10;startSize=10;" parent="KwM0fEK1zE-uCKd_Dp6U-1" source="KwM0fEK1zE-uCKd_Dp6U-189" target="KwM0fEK1zE-uCKd_Dp6U-31" edge="1">
          <mxGeometry relative="1" as="geometry">
            <Array as="points">
              <mxPoint x="-650" y="2015" />
              <mxPoint x="-650" y="1990" />
            </Array>
          </mxGeometry>
        </mxCell>
        <mxCell id="KwM0fEK1zE-uCKd_Dp6U-123" style="edgeStyle=orthogonalEdgeStyle;rounded=1;orthogonalLoop=1;jettySize=auto;html=1;fontSize=16;startArrow=ERmandOne;startFill=0;endArrow=ERzeroToMany;endFill=0;strokeColor=#33FF33;strokeWidth=2;endSize=10;startSize=10;" parent="KwM0fEK1zE-uCKd_Dp6U-1" source="KwM0fEK1zE-uCKd_Dp6U-5" target="KwM0fEK1zE-uCKd_Dp6U-47" edge="1">
          <mxGeometry relative="1" as="geometry">
            <Array as="points">
              <mxPoint x="-1600" y="1980" />
              <mxPoint x="-1600" y="2540" />
              <mxPoint x="-620" y="2540" />
              <mxPoint x="-620" y="2235" />
            </Array>
            <mxPoint x="-1722.5" y="1985" as="sourcePoint" />
          </mxGeometry>
        </mxCell>
        <mxCell id="H8gY0inZS0x89RlXEYVu-0" style="edgeStyle=orthogonalEdgeStyle;rounded=0;orthogonalLoop=1;jettySize=auto;html=1;exitX=0.5;exitY=0;exitDx=0;exitDy=0;exitPerimeter=0;entryX=0.5;entryY=1;entryDx=0;entryDy=0;strokeColor=#999999;dashed=1;endArrow=none;endFill=0;" parent="KwM0fEK1zE-uCKd_Dp6U-1" source="KwM0fEK1zE-uCKd_Dp6U-244" target="KwM0fEK1zE-uCKd_Dp6U-110" edge="1">
          <mxGeometry relative="1" as="geometry" />
        </mxCell>
        <mxCell id="KwM0fEK1zE-uCKd_Dp6U-244" value="Lots of duplicated Data.&lt;br style=&quot;font-size: 16px;&quot;&gt;&lt;br style=&quot;font-size: 16px;&quot;&gt;Need Good Excuse.&lt;br style=&quot;font-size: 16px;&quot;&gt;&lt;br style=&quot;font-size: 16px;&quot;&gt;Simplyfy Queries? Why not stored proc then?" style="shape=note;size=20;whiteSpace=wrap;html=1;fontSize=16;" parent="KwM0fEK1zE-uCKd_Dp6U-1" vertex="1">
          <mxGeometry x="-1940" y="2500" width="220" height="130" as="geometry" />
        </mxCell>
        <mxCell id="KwM0fEK1zE-uCKd_Dp6U-146" value="Status" style="shape=table;startSize=30;container=1;collapsible=1;childLayout=tableLayout;fixedRows=1;rowLines=0;fontStyle=1;align=center;resizeLast=1;labelBorderColor=none;fontSize=16;dashed=1;dashPattern=1 1;" parent="KwM0fEK1zE-uCKd_Dp6U-1" vertex="1">
          <mxGeometry x="-1013" y="2180" width="303" height="120" as="geometry" />
        </mxCell>
        <mxCell id="KwM0fEK1zE-uCKd_Dp6U-147" value="" style="shape=tableRow;horizontal=0;startSize=0;swimlaneHead=0;swimlaneBody=0;fillColor=none;collapsible=0;dropTarget=0;points=[[0,0.5],[1,0.5]];portConstraint=eastwest;top=0;left=0;right=0;bottom=1;labelBorderColor=none;fontSize=16;" parent="KwM0fEK1zE-uCKd_Dp6U-146" vertex="1">
          <mxGeometry y="30" width="303" height="40" as="geometry" />
        </mxCell>
        <mxCell id="KwM0fEK1zE-uCKd_Dp6U-148" value="PK" style="shape=partialRectangle;connectable=0;fillColor=none;top=0;left=0;bottom=0;right=0;fontStyle=1;overflow=hidden;labelBorderColor=none;fontSize=16;" parent="KwM0fEK1zE-uCKd_Dp6U-147" vertex="1">
          <mxGeometry width="33" height="40" as="geometry">
            <mxRectangle width="33" height="40" as="alternateBounds" />
          </mxGeometry>
        </mxCell>
        <mxCell id="KwM0fEK1zE-uCKd_Dp6U-149" value="StatusID" style="shape=partialRectangle;connectable=0;fillColor=none;top=0;left=0;bottom=0;right=0;align=left;spacingLeft=6;fontStyle=5;overflow=hidden;labelBorderColor=none;fontSize=16;" parent="KwM0fEK1zE-uCKd_Dp6U-147" vertex="1">
          <mxGeometry x="33" width="110" height="40" as="geometry">
            <mxRectangle width="110" height="40" as="alternateBounds" />
          </mxGeometry>
        </mxCell>
        <mxCell id="KwM0fEK1zE-uCKd_Dp6U-150" value="tinyint NOT NULL" style="shape=partialRectangle;connectable=0;fillColor=none;top=0;left=0;bottom=0;right=0;align=left;spacingLeft=6;fontStyle=1;overflow=hidden;labelBorderColor=none;fontSize=16;" parent="KwM0fEK1zE-uCKd_Dp6U-147" vertex="1">
          <mxGeometry x="143" width="160" height="40" as="geometry">
            <mxRectangle width="160" height="40" as="alternateBounds" />
          </mxGeometry>
        </mxCell>
        <mxCell id="KwM0fEK1zE-uCKd_Dp6U-151" value="" style="shape=tableRow;horizontal=0;startSize=0;swimlaneHead=0;swimlaneBody=0;fillColor=none;collapsible=0;dropTarget=0;points=[[0,0.5],[1,0.5]];portConstraint=eastwest;top=0;left=0;right=0;bottom=0;labelBorderColor=none;fontSize=16;" parent="KwM0fEK1zE-uCKd_Dp6U-146" vertex="1">
          <mxGeometry y="70" width="303" height="30" as="geometry" />
        </mxCell>
        <mxCell id="KwM0fEK1zE-uCKd_Dp6U-152" value="" style="shape=partialRectangle;connectable=0;fillColor=none;top=0;left=0;bottom=0;right=0;editable=1;overflow=hidden;labelBorderColor=none;fontSize=16;" parent="KwM0fEK1zE-uCKd_Dp6U-151" vertex="1">
          <mxGeometry width="33" height="30" as="geometry">
            <mxRectangle width="33" height="30" as="alternateBounds" />
          </mxGeometry>
        </mxCell>
        <mxCell id="KwM0fEK1zE-uCKd_Dp6U-153" value="StatusName" style="shape=partialRectangle;connectable=0;fillColor=none;top=0;left=0;bottom=0;right=0;align=left;spacingLeft=6;overflow=hidden;labelBorderColor=none;fontSize=16;" parent="KwM0fEK1zE-uCKd_Dp6U-151" vertex="1">
          <mxGeometry x="33" width="110" height="30" as="geometry">
            <mxRectangle width="110" height="30" as="alternateBounds" />
          </mxGeometry>
        </mxCell>
        <mxCell id="KwM0fEK1zE-uCKd_Dp6U-154" value="varchar(50)" style="shape=partialRectangle;connectable=0;fillColor=none;top=0;left=0;bottom=0;right=0;align=left;spacingLeft=6;overflow=hidden;labelBorderColor=none;fontSize=16;" parent="KwM0fEK1zE-uCKd_Dp6U-151" vertex="1">
          <mxGeometry x="143" width="160" height="30" as="geometry">
            <mxRectangle width="160" height="30" as="alternateBounds" />
          </mxGeometry>
        </mxCell>
        <mxCell id="KwM0fEK1zE-uCKd_Dp6U-155" style="edgeStyle=orthogonalEdgeStyle;rounded=1;orthogonalLoop=1;jettySize=auto;html=1;fontSize=16;startArrow=ERoneToMany;startFill=0;endArrow=ERmandOne;endFill=0;exitX=1;exitY=0.5;exitDx=0;exitDy=0;strokeWidth=2;endSize=10;startSize=10;strokeColor=#FF8000;" parent="KwM0fEK1zE-uCKd_Dp6U-1" source="KwM0fEK1zE-uCKd_Dp6U-134" target="KwM0fEK1zE-uCKd_Dp6U-147" edge="1">
          <mxGeometry relative="1" as="geometry">
            <mxPoint x="-963" y="2225" as="targetPoint" />
            <Array as="points">
              <mxPoint x="-1080" y="2049" />
              <mxPoint x="-1080" y="2225" />
            </Array>
          </mxGeometry>
        </mxCell>
        <mxCell id="KwM0fEK1zE-uCKd_Dp6U-182" style="edgeStyle=orthogonalEdgeStyle;rounded=1;orthogonalLoop=1;jettySize=auto;html=1;fontSize=16;startArrow=ERmandOne;startFill=0;endArrow=ERzeroToMany;endFill=0;strokeWidth=2;endSize=10;startSize=10;strokeColor=#3399FF;" parent="KwM0fEK1zE-uCKd_Dp6U-1" source="KwM0fEK1zE-uCKd_Dp6U-126" target="KwM0fEK1zE-uCKd_Dp6U-157" edge="1">
          <mxGeometry relative="1" as="geometry">
            <mxPoint x="-1230" y="2040.0285714285715" as="sourcePoint" />
            <mxPoint x="-1120" y="2370.0285714285715" as="targetPoint" />
            <Array as="points">
              <mxPoint x="-1120" y="1985" />
              <mxPoint x="-1120" y="2245" />
            </Array>
          </mxGeometry>
        </mxCell>
        <mxCell id="KwM0fEK1zE-uCKd_Dp6U-201" style="edgeStyle=orthogonalEdgeStyle;rounded=1;orthogonalLoop=1;jettySize=auto;html=1;fontSize=16;startArrow=ERmandOne;startFill=0;endArrow=ERoneToMany;endFill=0;strokeWidth=2;endSize=10;startSize=10;strokeColor=#3399FF;" parent="KwM0fEK1zE-uCKd_Dp6U-1" source="KwM0fEK1zE-uCKd_Dp6U-126" target="KwM0fEK1zE-uCKd_Dp6U-185" edge="1">
          <mxGeometry relative="1" as="geometry">
            <Array as="points">
              <mxPoint x="-1070" y="1984" />
              <mxPoint x="-1070" y="1984" />
            </Array>
            <mxPoint x="-1040" y="1985" as="targetPoint" />
          </mxGeometry>
        </mxCell>
        <mxCell id="KwM0fEK1zE-uCKd_Dp6U-246" style="edgeStyle=orthogonalEdgeStyle;rounded=1;orthogonalLoop=1;jettySize=auto;html=1;fontSize=16;startArrow=ERoneToMany;startFill=0;endArrow=ERmandOne;endFill=0;exitX=1;exitY=0.5;exitDx=0;exitDy=0;strokeWidth=2;endSize=10;startSize=10;strokeColor=#FF8000;" parent="KwM0fEK1zE-uCKd_Dp6U-1" source="KwM0fEK1zE-uCKd_Dp6U-165" target="KwM0fEK1zE-uCKd_Dp6U-147" edge="1">
          <mxGeometry relative="1" as="geometry">
            <mxPoint x="-963" y="2225" as="targetPoint" />
            <Array as="points">
              <mxPoint x="-1080" y="2305" />
              <mxPoint x="-1080" y="2225" />
            </Array>
            <mxPoint x="-1200" y="2055" as="sourcePoint" />
          </mxGeometry>
        </mxCell>
        <mxCell id="KwM0fEK1zE-uCKd_Dp6U-260" value="Base" style="shape=table;startSize=30;container=1;collapsible=1;childLayout=tableLayout;fixedRows=1;rowLines=0;fontStyle=1;align=center;resizeLast=1;labelBorderColor=none;fontSize=16;" parent="KwM0fEK1zE-uCKd_Dp6U-1" vertex="1">
          <mxGeometry x="-44.5" y="1900" width="384.5" height="130" as="geometry" />
        </mxCell>
        <mxCell id="KwM0fEK1zE-uCKd_Dp6U-261" value="" style="shape=tableRow;horizontal=0;startSize=0;swimlaneHead=0;swimlaneBody=0;fillColor=none;collapsible=0;dropTarget=0;points=[[0,0.5],[1,0.5]];portConstraint=eastwest;top=0;left=0;right=0;bottom=1;labelBorderColor=none;fontSize=16;" parent="KwM0fEK1zE-uCKd_Dp6U-260" vertex="1">
          <mxGeometry y="30" width="384.5" height="30" as="geometry" />
        </mxCell>
        <mxCell id="KwM0fEK1zE-uCKd_Dp6U-262" value="PK" style="shape=partialRectangle;connectable=0;fillColor=none;top=0;left=0;bottom=0;right=0;fontStyle=1;overflow=hidden;labelBorderColor=none;fontSize=16;" parent="KwM0fEK1zE-uCKd_Dp6U-261" vertex="1">
          <mxGeometry width="30" height="30" as="geometry">
            <mxRectangle width="30" height="30" as="alternateBounds" />
          </mxGeometry>
        </mxCell>
        <mxCell id="KwM0fEK1zE-uCKd_Dp6U-263" value="BaseID" style="shape=partialRectangle;connectable=0;fillColor=none;top=0;left=0;bottom=0;right=0;align=left;spacingLeft=6;fontStyle=5;overflow=hidden;labelBorderColor=none;fontSize=16;" parent="KwM0fEK1zE-uCKd_Dp6U-261" vertex="1">
          <mxGeometry x="30" width="154.5" height="30" as="geometry">
            <mxRectangle width="154.5" height="30" as="alternateBounds" />
          </mxGeometry>
        </mxCell>
        <mxCell id="KwM0fEK1zE-uCKd_Dp6U-264" value="int NOT NULL" style="shape=partialRectangle;connectable=0;fillColor=none;top=0;left=0;bottom=0;right=0;align=left;spacingLeft=6;fontStyle=1;overflow=hidden;labelBorderColor=none;fontSize=16;" parent="KwM0fEK1zE-uCKd_Dp6U-261" vertex="1">
          <mxGeometry x="184.5" width="200" height="30" as="geometry">
            <mxRectangle width="200" height="30" as="alternateBounds" />
          </mxGeometry>
        </mxCell>
        <mxCell id="KwM0fEK1zE-uCKd_Dp6U-265" value="" style="shape=tableRow;horizontal=0;startSize=0;swimlaneHead=0;swimlaneBody=0;fillColor=none;collapsible=0;dropTarget=0;points=[[0,0.5],[1,0.5]];portConstraint=eastwest;top=0;left=0;right=0;bottom=0;labelBorderColor=none;fontSize=16;" parent="KwM0fEK1zE-uCKd_Dp6U-260" vertex="1">
          <mxGeometry y="60" width="384.5" height="30" as="geometry" />
        </mxCell>
        <mxCell id="KwM0fEK1zE-uCKd_Dp6U-266" value="" style="shape=partialRectangle;connectable=0;fillColor=none;top=0;left=0;bottom=0;right=0;editable=1;overflow=hidden;labelBorderColor=none;fontSize=16;" parent="KwM0fEK1zE-uCKd_Dp6U-265" vertex="1">
          <mxGeometry width="30" height="30" as="geometry">
            <mxRectangle width="30" height="30" as="alternateBounds" />
          </mxGeometry>
        </mxCell>
        <mxCell id="KwM0fEK1zE-uCKd_Dp6U-267" value="BaseDescription" style="shape=partialRectangle;connectable=0;fillColor=none;top=0;left=0;bottom=0;right=0;align=left;spacingLeft=6;overflow=hidden;labelBorderColor=none;fontSize=16;" parent="KwM0fEK1zE-uCKd_Dp6U-265" vertex="1">
          <mxGeometry x="30" width="154.5" height="30" as="geometry">
            <mxRectangle width="154.5" height="30" as="alternateBounds" />
          </mxGeometry>
        </mxCell>
        <mxCell id="KwM0fEK1zE-uCKd_Dp6U-268" value="varchar(1000) NOT NULL" style="shape=partialRectangle;connectable=0;fillColor=none;top=0;left=0;bottom=0;right=0;align=left;spacingLeft=6;overflow=hidden;labelBorderColor=none;fontSize=16;" parent="KwM0fEK1zE-uCKd_Dp6U-265" vertex="1">
          <mxGeometry x="184.5" width="200" height="30" as="geometry">
            <mxRectangle width="200" height="30" as="alternateBounds" />
          </mxGeometry>
        </mxCell>
        <mxCell id="KwM0fEK1zE-uCKd_Dp6U-285" value="" style="shape=tableRow;horizontal=0;startSize=0;swimlaneHead=0;swimlaneBody=0;fillColor=none;collapsible=0;dropTarget=0;points=[[0,0.5],[1,0.5]];portConstraint=eastwest;top=0;left=0;right=0;bottom=0;labelBorderColor=none;fontSize=16;" parent="KwM0fEK1zE-uCKd_Dp6U-260" vertex="1">
          <mxGeometry y="90" width="384.5" height="30" as="geometry" />
        </mxCell>
        <mxCell id="KwM0fEK1zE-uCKd_Dp6U-286" value="" style="shape=partialRectangle;connectable=0;fillColor=none;top=0;left=0;bottom=0;right=0;editable=1;overflow=hidden;labelBorderColor=none;fontSize=16;" parent="KwM0fEK1zE-uCKd_Dp6U-285" vertex="1">
          <mxGeometry width="30" height="30" as="geometry">
            <mxRectangle width="30" height="30" as="alternateBounds" />
          </mxGeometry>
        </mxCell>
        <mxCell id="KwM0fEK1zE-uCKd_Dp6U-287" value="BasePrice" style="shape=partialRectangle;connectable=0;fillColor=none;top=0;left=0;bottom=0;right=0;align=left;spacingLeft=6;overflow=hidden;labelBorderColor=none;fontSize=16;" parent="KwM0fEK1zE-uCKd_Dp6U-285" vertex="1">
          <mxGeometry x="30" width="154.5" height="30" as="geometry">
            <mxRectangle width="154.5" height="30" as="alternateBounds" />
          </mxGeometry>
        </mxCell>
        <mxCell id="KwM0fEK1zE-uCKd_Dp6U-288" value="smallmoney NOT NULL" style="shape=partialRectangle;connectable=0;fillColor=none;top=0;left=0;bottom=0;right=0;align=left;spacingLeft=6;overflow=hidden;labelBorderColor=none;fontSize=16;" parent="KwM0fEK1zE-uCKd_Dp6U-285" vertex="1">
          <mxGeometry x="184.5" width="200" height="30" as="geometry">
            <mxRectangle width="200" height="30" as="alternateBounds" />
          </mxGeometry>
        </mxCell>
        <mxCell id="KwM0fEK1zE-uCKd_Dp6U-293" style="edgeStyle=orthogonalEdgeStyle;rounded=1;jumpStyle=none;orthogonalLoop=1;jettySize=auto;html=1;exitX=0;exitY=0.5;exitDx=0;exitDy=0;fontSize=16;startArrow=ERmandOne;startFill=0;endArrow=ERoneToMany;endFill=0;startSize=10;endSize=10;targetPerimeterSpacing=0;strokeColor=#999999;strokeWidth=2;" parent="KwM0fEK1zE-uCKd_Dp6U-1" source="KwM0fEK1zE-uCKd_Dp6U-261" target="KwM0fEK1zE-uCKd_Dp6U-248" edge="1">
          <mxGeometry relative="1" as="geometry">
            <Array as="points">
              <mxPoint x="-84" y="1945" />
              <mxPoint x="-84" y="2075" />
            </Array>
          </mxGeometry>
        </mxCell>
        <mxCell id="KwM0fEK1zE-uCKd_Dp6U-294" value="Icing" style="shape=table;startSize=30;container=1;collapsible=1;childLayout=tableLayout;fixedRows=1;rowLines=0;fontStyle=1;align=center;resizeLast=1;labelBorderColor=none;fontSize=16;" parent="KwM0fEK1zE-uCKd_Dp6U-1" vertex="1">
          <mxGeometry x="-44.5" y="2070" width="384.5" height="130" as="geometry" />
        </mxCell>
        <mxCell id="KwM0fEK1zE-uCKd_Dp6U-295" value="" style="shape=tableRow;horizontal=0;startSize=0;swimlaneHead=0;swimlaneBody=0;fillColor=none;collapsible=0;dropTarget=0;points=[[0,0.5],[1,0.5]];portConstraint=eastwest;top=0;left=0;right=0;bottom=1;labelBorderColor=none;fontSize=16;" parent="KwM0fEK1zE-uCKd_Dp6U-294" vertex="1">
          <mxGeometry y="30" width="384.5" height="30" as="geometry" />
        </mxCell>
        <mxCell id="KwM0fEK1zE-uCKd_Dp6U-296" value="PK" style="shape=partialRectangle;connectable=0;fillColor=none;top=0;left=0;bottom=0;right=0;fontStyle=1;overflow=hidden;labelBorderColor=none;fontSize=16;" parent="KwM0fEK1zE-uCKd_Dp6U-295" vertex="1">
          <mxGeometry width="30" height="30" as="geometry">
            <mxRectangle width="30" height="30" as="alternateBounds" />
          </mxGeometry>
        </mxCell>
        <mxCell id="KwM0fEK1zE-uCKd_Dp6U-297" value="IcingID" style="shape=partialRectangle;connectable=0;fillColor=none;top=0;left=0;bottom=0;right=0;align=left;spacingLeft=6;fontStyle=5;overflow=hidden;labelBorderColor=none;fontSize=16;" parent="KwM0fEK1zE-uCKd_Dp6U-295" vertex="1">
          <mxGeometry x="30" width="154.5" height="30" as="geometry">
            <mxRectangle width="154.5" height="30" as="alternateBounds" />
          </mxGeometry>
        </mxCell>
        <mxCell id="KwM0fEK1zE-uCKd_Dp6U-298" value="int NOT NULL" style="shape=partialRectangle;connectable=0;fillColor=none;top=0;left=0;bottom=0;right=0;align=left;spacingLeft=6;fontStyle=1;overflow=hidden;labelBorderColor=none;fontSize=16;" parent="KwM0fEK1zE-uCKd_Dp6U-295" vertex="1">
          <mxGeometry x="184.5" width="200" height="30" as="geometry">
            <mxRectangle width="200" height="30" as="alternateBounds" />
          </mxGeometry>
        </mxCell>
        <mxCell id="KwM0fEK1zE-uCKd_Dp6U-299" value="" style="shape=tableRow;horizontal=0;startSize=0;swimlaneHead=0;swimlaneBody=0;fillColor=none;collapsible=0;dropTarget=0;points=[[0,0.5],[1,0.5]];portConstraint=eastwest;top=0;left=0;right=0;bottom=0;labelBorderColor=none;fontSize=16;" parent="KwM0fEK1zE-uCKd_Dp6U-294" vertex="1">
          <mxGeometry y="60" width="384.5" height="30" as="geometry" />
        </mxCell>
        <mxCell id="KwM0fEK1zE-uCKd_Dp6U-300" value="" style="shape=partialRectangle;connectable=0;fillColor=none;top=0;left=0;bottom=0;right=0;editable=1;overflow=hidden;labelBorderColor=none;fontSize=16;" parent="KwM0fEK1zE-uCKd_Dp6U-299" vertex="1">
          <mxGeometry width="30" height="30" as="geometry">
            <mxRectangle width="30" height="30" as="alternateBounds" />
          </mxGeometry>
        </mxCell>
        <mxCell id="KwM0fEK1zE-uCKd_Dp6U-301" value="IcingDescription" style="shape=partialRectangle;connectable=0;fillColor=none;top=0;left=0;bottom=0;right=0;align=left;spacingLeft=6;overflow=hidden;labelBorderColor=none;fontSize=16;" parent="KwM0fEK1zE-uCKd_Dp6U-299" vertex="1">
          <mxGeometry x="30" width="154.5" height="30" as="geometry">
            <mxRectangle width="154.5" height="30" as="alternateBounds" />
          </mxGeometry>
        </mxCell>
        <mxCell id="KwM0fEK1zE-uCKd_Dp6U-302" value="varchar(1000) NOT NULL" style="shape=partialRectangle;connectable=0;fillColor=none;top=0;left=0;bottom=0;right=0;align=left;spacingLeft=6;overflow=hidden;labelBorderColor=none;fontSize=16;" parent="KwM0fEK1zE-uCKd_Dp6U-299" vertex="1">
          <mxGeometry x="184.5" width="200" height="30" as="geometry">
            <mxRectangle width="200" height="30" as="alternateBounds" />
          </mxGeometry>
        </mxCell>
        <mxCell id="KwM0fEK1zE-uCKd_Dp6U-307" value="" style="shape=tableRow;horizontal=0;startSize=0;swimlaneHead=0;swimlaneBody=0;fillColor=none;collapsible=0;dropTarget=0;points=[[0,0.5],[1,0.5]];portConstraint=eastwest;top=0;left=0;right=0;bottom=0;labelBorderColor=none;fontSize=16;" parent="KwM0fEK1zE-uCKd_Dp6U-294" vertex="1">
          <mxGeometry y="90" width="384.5" height="30" as="geometry" />
        </mxCell>
        <mxCell id="KwM0fEK1zE-uCKd_Dp6U-308" value="" style="shape=partialRectangle;connectable=0;fillColor=none;top=0;left=0;bottom=0;right=0;editable=1;overflow=hidden;labelBorderColor=none;fontSize=16;" parent="KwM0fEK1zE-uCKd_Dp6U-307" vertex="1">
          <mxGeometry width="30" height="30" as="geometry">
            <mxRectangle width="30" height="30" as="alternateBounds" />
          </mxGeometry>
        </mxCell>
        <mxCell id="KwM0fEK1zE-uCKd_Dp6U-309" value="IcingPrice" style="shape=partialRectangle;connectable=0;fillColor=none;top=0;left=0;bottom=0;right=0;align=left;spacingLeft=6;overflow=hidden;labelBorderColor=none;fontSize=16;" parent="KwM0fEK1zE-uCKd_Dp6U-307" vertex="1">
          <mxGeometry x="30" width="154.5" height="30" as="geometry">
            <mxRectangle width="154.5" height="30" as="alternateBounds" />
          </mxGeometry>
        </mxCell>
        <mxCell id="KwM0fEK1zE-uCKd_Dp6U-310" value="smallmoney NOT NULL" style="shape=partialRectangle;connectable=0;fillColor=none;top=0;left=0;bottom=0;right=0;align=left;spacingLeft=6;overflow=hidden;labelBorderColor=none;fontSize=16;" parent="KwM0fEK1zE-uCKd_Dp6U-307" vertex="1">
          <mxGeometry x="184.5" width="200" height="30" as="geometry">
            <mxRectangle width="200" height="30" as="alternateBounds" />
          </mxGeometry>
        </mxCell>
        <mxCell id="KwM0fEK1zE-uCKd_Dp6U-311" style="edgeStyle=orthogonalEdgeStyle;rounded=1;jumpStyle=none;orthogonalLoop=1;jettySize=auto;html=1;exitX=0;exitY=0.5;exitDx=0;exitDy=0;fontSize=16;startArrow=ERmandOne;startFill=0;endArrow=ERoneToMany;endFill=0;startSize=10;endSize=10;targetPerimeterSpacing=0;strokeColor=#999999;strokeWidth=2;" parent="KwM0fEK1zE-uCKd_Dp6U-1" source="KwM0fEK1zE-uCKd_Dp6U-295" target="KwM0fEK1zE-uCKd_Dp6U-256" edge="1">
          <mxGeometry relative="1" as="geometry" />
        </mxCell>
        <mxCell id="KwM0fEK1zE-uCKd_Dp6U-312" value="Topping" style="shape=table;startSize=30;container=1;collapsible=1;childLayout=tableLayout;fixedRows=1;rowLines=0;fontStyle=1;align=center;resizeLast=1;labelBorderColor=none;fontSize=16;" parent="KwM0fEK1zE-uCKd_Dp6U-1" vertex="1">
          <mxGeometry x="-44.5" y="2240" width="384.5" height="130" as="geometry" />
        </mxCell>
        <mxCell id="KwM0fEK1zE-uCKd_Dp6U-313" value="" style="shape=tableRow;horizontal=0;startSize=0;swimlaneHead=0;swimlaneBody=0;fillColor=none;collapsible=0;dropTarget=0;points=[[0,0.5],[1,0.5]];portConstraint=eastwest;top=0;left=0;right=0;bottom=1;labelBorderColor=none;fontSize=16;" parent="KwM0fEK1zE-uCKd_Dp6U-312" vertex="1">
          <mxGeometry y="30" width="384.5" height="30" as="geometry" />
        </mxCell>
        <mxCell id="KwM0fEK1zE-uCKd_Dp6U-314" value="PK" style="shape=partialRectangle;connectable=0;fillColor=none;top=0;left=0;bottom=0;right=0;fontStyle=1;overflow=hidden;labelBorderColor=none;fontSize=16;" parent="KwM0fEK1zE-uCKd_Dp6U-313" vertex="1">
          <mxGeometry width="30" height="30" as="geometry">
            <mxRectangle width="30" height="30" as="alternateBounds" />
          </mxGeometry>
        </mxCell>
        <mxCell id="KwM0fEK1zE-uCKd_Dp6U-315" value="ToppingID" style="shape=partialRectangle;connectable=0;fillColor=none;top=0;left=0;bottom=0;right=0;align=left;spacingLeft=6;fontStyle=5;overflow=hidden;labelBorderColor=none;fontSize=16;" parent="KwM0fEK1zE-uCKd_Dp6U-313" vertex="1">
          <mxGeometry x="30" width="154.5" height="30" as="geometry">
            <mxRectangle width="154.5" height="30" as="alternateBounds" />
          </mxGeometry>
        </mxCell>
        <mxCell id="KwM0fEK1zE-uCKd_Dp6U-316" value="int NOT NULL" style="shape=partialRectangle;connectable=0;fillColor=none;top=0;left=0;bottom=0;right=0;align=left;spacingLeft=6;fontStyle=1;overflow=hidden;labelBorderColor=none;fontSize=16;" parent="KwM0fEK1zE-uCKd_Dp6U-313" vertex="1">
          <mxGeometry x="184.5" width="200" height="30" as="geometry">
            <mxRectangle width="200" height="30" as="alternateBounds" />
          </mxGeometry>
        </mxCell>
        <mxCell id="KwM0fEK1zE-uCKd_Dp6U-317" value="" style="shape=tableRow;horizontal=0;startSize=0;swimlaneHead=0;swimlaneBody=0;fillColor=none;collapsible=0;dropTarget=0;points=[[0,0.5],[1,0.5]];portConstraint=eastwest;top=0;left=0;right=0;bottom=0;labelBorderColor=none;fontSize=16;" parent="KwM0fEK1zE-uCKd_Dp6U-312" vertex="1">
          <mxGeometry y="60" width="384.5" height="30" as="geometry" />
        </mxCell>
        <mxCell id="KwM0fEK1zE-uCKd_Dp6U-318" value="" style="shape=partialRectangle;connectable=0;fillColor=none;top=0;left=0;bottom=0;right=0;editable=1;overflow=hidden;labelBorderColor=none;fontSize=16;" parent="KwM0fEK1zE-uCKd_Dp6U-317" vertex="1">
          <mxGeometry width="30" height="30" as="geometry">
            <mxRectangle width="30" height="30" as="alternateBounds" />
          </mxGeometry>
        </mxCell>
        <mxCell id="KwM0fEK1zE-uCKd_Dp6U-319" value="ToppingDescription" style="shape=partialRectangle;connectable=0;fillColor=none;top=0;left=0;bottom=0;right=0;align=left;spacingLeft=6;overflow=hidden;labelBorderColor=none;fontSize=16;" parent="KwM0fEK1zE-uCKd_Dp6U-317" vertex="1">
          <mxGeometry x="30" width="154.5" height="30" as="geometry">
            <mxRectangle width="154.5" height="30" as="alternateBounds" />
          </mxGeometry>
        </mxCell>
        <mxCell id="KwM0fEK1zE-uCKd_Dp6U-320" value="varchar(1000) NOT NULL" style="shape=partialRectangle;connectable=0;fillColor=none;top=0;left=0;bottom=0;right=0;align=left;spacingLeft=6;overflow=hidden;labelBorderColor=none;fontSize=16;" parent="KwM0fEK1zE-uCKd_Dp6U-317" vertex="1">
          <mxGeometry x="184.5" width="200" height="30" as="geometry">
            <mxRectangle width="200" height="30" as="alternateBounds" />
          </mxGeometry>
        </mxCell>
        <mxCell id="KwM0fEK1zE-uCKd_Dp6U-325" value="" style="shape=tableRow;horizontal=0;startSize=0;swimlaneHead=0;swimlaneBody=0;fillColor=none;collapsible=0;dropTarget=0;points=[[0,0.5],[1,0.5]];portConstraint=eastwest;top=0;left=0;right=0;bottom=0;labelBorderColor=none;fontSize=16;" parent="KwM0fEK1zE-uCKd_Dp6U-312" vertex="1">
          <mxGeometry y="90" width="384.5" height="30" as="geometry" />
        </mxCell>
        <mxCell id="KwM0fEK1zE-uCKd_Dp6U-326" value="" style="shape=partialRectangle;connectable=0;fillColor=none;top=0;left=0;bottom=0;right=0;editable=1;overflow=hidden;labelBorderColor=none;fontSize=16;" parent="KwM0fEK1zE-uCKd_Dp6U-325" vertex="1">
          <mxGeometry width="30" height="30" as="geometry">
            <mxRectangle width="30" height="30" as="alternateBounds" />
          </mxGeometry>
        </mxCell>
        <mxCell id="KwM0fEK1zE-uCKd_Dp6U-327" value="ToppingPrice" style="shape=partialRectangle;connectable=0;fillColor=none;top=0;left=0;bottom=0;right=0;align=left;spacingLeft=6;overflow=hidden;labelBorderColor=none;fontSize=16;" parent="KwM0fEK1zE-uCKd_Dp6U-325" vertex="1">
          <mxGeometry x="30" width="154.5" height="30" as="geometry">
            <mxRectangle width="154.5" height="30" as="alternateBounds" />
          </mxGeometry>
        </mxCell>
        <mxCell id="KwM0fEK1zE-uCKd_Dp6U-328" value="smallmoney NOT NULL" style="shape=partialRectangle;connectable=0;fillColor=none;top=0;left=0;bottom=0;right=0;align=left;spacingLeft=6;overflow=hidden;labelBorderColor=none;fontSize=16;" parent="KwM0fEK1zE-uCKd_Dp6U-325" vertex="1">
          <mxGeometry x="184.5" width="200" height="30" as="geometry">
            <mxRectangle width="200" height="30" as="alternateBounds" />
          </mxGeometry>
        </mxCell>
        <mxCell id="KwM0fEK1zE-uCKd_Dp6U-330" style="edgeStyle=orthogonalEdgeStyle;rounded=1;jumpStyle=none;orthogonalLoop=1;jettySize=auto;html=1;exitX=0;exitY=0.5;exitDx=0;exitDy=0;entryX=1;entryY=0.5;entryDx=0;entryDy=0;fontSize=16;startArrow=ERmandOne;startFill=0;endArrow=ERoneToMany;endFill=0;startSize=10;endSize=10;targetPerimeterSpacing=0;strokeColor=#999999;strokeWidth=2;" parent="KwM0fEK1zE-uCKd_Dp6U-1" source="KwM0fEK1zE-uCKd_Dp6U-313" target="KwM0fEK1zE-uCKd_Dp6U-252" edge="1">
          <mxGeometry relative="1" as="geometry" />
        </mxCell>
        <mxCell id="KwM0fEK1zE-uCKd_Dp6U-335" value="Shape" style="shape=table;startSize=30;container=1;collapsible=1;childLayout=tableLayout;fixedRows=1;rowLines=0;fontStyle=1;align=center;resizeLast=1;labelBorderColor=none;fontSize=16;" parent="KwM0fEK1zE-uCKd_Dp6U-1" vertex="1">
          <mxGeometry x="-44.5" y="2410" width="384.5" height="130" as="geometry" />
        </mxCell>
        <mxCell id="KwM0fEK1zE-uCKd_Dp6U-336" value="" style="shape=tableRow;horizontal=0;startSize=0;swimlaneHead=0;swimlaneBody=0;fillColor=none;collapsible=0;dropTarget=0;points=[[0,0.5],[1,0.5]];portConstraint=eastwest;top=0;left=0;right=0;bottom=1;labelBorderColor=none;fontSize=16;" parent="KwM0fEK1zE-uCKd_Dp6U-335" vertex="1">
          <mxGeometry y="30" width="384.5" height="30" as="geometry" />
        </mxCell>
        <mxCell id="KwM0fEK1zE-uCKd_Dp6U-337" value="PK" style="shape=partialRectangle;connectable=0;fillColor=none;top=0;left=0;bottom=0;right=0;fontStyle=1;overflow=hidden;labelBorderColor=none;fontSize=16;" parent="KwM0fEK1zE-uCKd_Dp6U-336" vertex="1">
          <mxGeometry width="30" height="30" as="geometry">
            <mxRectangle width="30" height="30" as="alternateBounds" />
          </mxGeometry>
        </mxCell>
        <mxCell id="KwM0fEK1zE-uCKd_Dp6U-338" value="ShapeID" style="shape=partialRectangle;connectable=0;fillColor=none;top=0;left=0;bottom=0;right=0;align=left;spacingLeft=6;fontStyle=5;overflow=hidden;labelBorderColor=none;fontSize=16;" parent="KwM0fEK1zE-uCKd_Dp6U-336" vertex="1">
          <mxGeometry x="30" width="154.5" height="30" as="geometry">
            <mxRectangle width="154.5" height="30" as="alternateBounds" />
          </mxGeometry>
        </mxCell>
        <mxCell id="KwM0fEK1zE-uCKd_Dp6U-339" value="int NOT NULL" style="shape=partialRectangle;connectable=0;fillColor=none;top=0;left=0;bottom=0;right=0;align=left;spacingLeft=6;fontStyle=1;overflow=hidden;labelBorderColor=none;fontSize=16;" parent="KwM0fEK1zE-uCKd_Dp6U-336" vertex="1">
          <mxGeometry x="184.5" width="200" height="30" as="geometry">
            <mxRectangle width="200" height="30" as="alternateBounds" />
          </mxGeometry>
        </mxCell>
        <mxCell id="KwM0fEK1zE-uCKd_Dp6U-340" value="" style="shape=tableRow;horizontal=0;startSize=0;swimlaneHead=0;swimlaneBody=0;fillColor=none;collapsible=0;dropTarget=0;points=[[0,0.5],[1,0.5]];portConstraint=eastwest;top=0;left=0;right=0;bottom=0;labelBorderColor=none;fontSize=16;" parent="KwM0fEK1zE-uCKd_Dp6U-335" vertex="1">
          <mxGeometry y="60" width="384.5" height="30" as="geometry" />
        </mxCell>
        <mxCell id="KwM0fEK1zE-uCKd_Dp6U-341" value="" style="shape=partialRectangle;connectable=0;fillColor=none;top=0;left=0;bottom=0;right=0;editable=1;overflow=hidden;labelBorderColor=none;fontSize=16;" parent="KwM0fEK1zE-uCKd_Dp6U-340" vertex="1">
          <mxGeometry width="30" height="30" as="geometry">
            <mxRectangle width="30" height="30" as="alternateBounds" />
          </mxGeometry>
        </mxCell>
        <mxCell id="KwM0fEK1zE-uCKd_Dp6U-342" value="ShapeDescription" style="shape=partialRectangle;connectable=0;fillColor=none;top=0;left=0;bottom=0;right=0;align=left;spacingLeft=6;overflow=hidden;labelBorderColor=none;fontSize=16;" parent="KwM0fEK1zE-uCKd_Dp6U-340" vertex="1">
          <mxGeometry x="30" width="154.5" height="30" as="geometry">
            <mxRectangle width="154.5" height="30" as="alternateBounds" />
          </mxGeometry>
        </mxCell>
        <mxCell id="KwM0fEK1zE-uCKd_Dp6U-343" value="varchar(1000) NOT NULL" style="shape=partialRectangle;connectable=0;fillColor=none;top=0;left=0;bottom=0;right=0;align=left;spacingLeft=6;overflow=hidden;labelBorderColor=none;fontSize=16;" parent="KwM0fEK1zE-uCKd_Dp6U-340" vertex="1">
          <mxGeometry x="184.5" width="200" height="30" as="geometry">
            <mxRectangle width="200" height="30" as="alternateBounds" />
          </mxGeometry>
        </mxCell>
        <mxCell id="KwM0fEK1zE-uCKd_Dp6U-348" value="" style="shape=tableRow;horizontal=0;startSize=0;swimlaneHead=0;swimlaneBody=0;fillColor=none;collapsible=0;dropTarget=0;points=[[0,0.5],[1,0.5]];portConstraint=eastwest;top=0;left=0;right=0;bottom=0;labelBorderColor=none;fontSize=16;" parent="KwM0fEK1zE-uCKd_Dp6U-335" vertex="1">
          <mxGeometry y="90" width="384.5" height="30" as="geometry" />
        </mxCell>
        <mxCell id="KwM0fEK1zE-uCKd_Dp6U-349" value="" style="shape=partialRectangle;connectable=0;fillColor=none;top=0;left=0;bottom=0;right=0;editable=1;overflow=hidden;labelBorderColor=none;fontSize=16;" parent="KwM0fEK1zE-uCKd_Dp6U-348" vertex="1">
          <mxGeometry width="30" height="30" as="geometry">
            <mxRectangle width="30" height="30" as="alternateBounds" />
          </mxGeometry>
        </mxCell>
        <mxCell id="KwM0fEK1zE-uCKd_Dp6U-350" value="ShapePrice" style="shape=partialRectangle;connectable=0;fillColor=none;top=0;left=0;bottom=0;right=0;align=left;spacingLeft=6;overflow=hidden;labelBorderColor=none;fontSize=16;" parent="KwM0fEK1zE-uCKd_Dp6U-348" vertex="1">
          <mxGeometry x="30" width="154.5" height="30" as="geometry">
            <mxRectangle width="154.5" height="30" as="alternateBounds" />
          </mxGeometry>
        </mxCell>
        <mxCell id="KwM0fEK1zE-uCKd_Dp6U-351" value="smallmoney NOT NULL" style="shape=partialRectangle;connectable=0;fillColor=none;top=0;left=0;bottom=0;right=0;align=left;spacingLeft=6;overflow=hidden;labelBorderColor=none;fontSize=16;" parent="KwM0fEK1zE-uCKd_Dp6U-348" vertex="1">
          <mxGeometry x="184.5" width="200" height="30" as="geometry">
            <mxRectangle width="200" height="30" as="alternateBounds" />
          </mxGeometry>
        </mxCell>
        <mxCell id="KwM0fEK1zE-uCKd_Dp6U-353" style="edgeStyle=orthogonalEdgeStyle;rounded=1;jumpStyle=none;orthogonalLoop=1;jettySize=auto;html=1;entryX=1;entryY=0.5;entryDx=0;entryDy=0;fontSize=16;startArrow=ERmandOne;startFill=0;endArrow=ERoneToMany;endFill=0;startSize=10;endSize=10;targetPerimeterSpacing=0;strokeColor=#999999;strokeWidth=2;" parent="KwM0fEK1zE-uCKd_Dp6U-1" source="KwM0fEK1zE-uCKd_Dp6U-336" target="KwM0fEK1zE-uCKd_Dp6U-331" edge="1">
          <mxGeometry relative="1" as="geometry">
            <mxPoint x="138.02173913043544" y="2530" as="sourcePoint" />
            <mxPoint x="-154.5" y="2195" as="targetPoint" />
            <Array as="points">
              <mxPoint x="-120" y="2455" />
              <mxPoint x="-120" y="2175" />
            </Array>
          </mxGeometry>
        </mxCell>
        <mxCell id="KwM0fEK1zE-uCKd_Dp6U-121" style="edgeStyle=orthogonalEdgeStyle;rounded=1;orthogonalLoop=1;jettySize=auto;html=1;strokeColor=#9933FF;endArrow=ERmandOne;endFill=0;startArrow=ERzeroToMany;startFill=0;strokeWidth=2;endSize=10;startSize=10;fontSize=16;" parent="KwM0fEK1zE-uCKd_Dp6U-1" source="KwM0fEK1zE-uCKd_Dp6U-21" target="KwM0fEK1zE-uCKd_Dp6U-31" edge="1">
          <mxGeometry relative="1" as="geometry">
            <mxPoint x="-1697.5" y="1650" as="targetPoint" />
            <Array as="points">
              <mxPoint x="-1575" y="2135" />
              <mxPoint x="-1575" y="2500" />
              <mxPoint x="-650" y="2500" />
              <mxPoint x="-650" y="1990" />
            </Array>
            <mxPoint x="-1722.5" y="2135" as="sourcePoint" />
          </mxGeometry>
        </mxCell>
        <mxCell id="KwM0fEK1zE-uCKd_Dp6U-120" style="edgeStyle=orthogonalEdgeStyle;rounded=1;orthogonalLoop=1;jettySize=auto;html=1;entryX=0;entryY=0.5;entryDx=0;entryDy=0;fontSize=16;startArrow=ERmandOne;startFill=0;endArrow=ERoneToMany;endFill=0;strokeColor=#FF0000;strokeWidth=2;endSize=10;startSize=10;" parent="KwM0fEK1zE-uCKd_Dp6U-1" source="KwM0fEK1zE-uCKd_Dp6U-111" target="KwM0fEK1zE-uCKd_Dp6U-161" edge="1">
          <mxGeometry relative="1" as="geometry">
            <Array as="points">
              <mxPoint x="-1760" y="2275" />
            </Array>
          </mxGeometry>
        </mxCell>
        <mxCell id="KwM0fEK1zE-uCKd_Dp6U-30" value="Cake" style="shape=table;startSize=30;container=1;collapsible=1;childLayout=tableLayout;fixedRows=1;rowLines=0;fontStyle=1;align=center;resizeLast=1;labelBorderColor=none;fontSize=16;" parent="KwM0fEK1zE-uCKd_Dp6U-1" vertex="1">
          <mxGeometry x="-580" y="1940" width="430" height="340" as="geometry" />
        </mxCell>
        <mxCell id="KwM0fEK1zE-uCKd_Dp6U-31" value="" style="shape=tableRow;horizontal=0;startSize=0;swimlaneHead=0;swimlaneBody=0;fillColor=none;collapsible=0;dropTarget=0;points=[[0,0.5],[1,0.5]];portConstraint=eastwest;top=0;left=0;right=0;bottom=1;labelBorderColor=none;fontSize=16;" parent="KwM0fEK1zE-uCKd_Dp6U-30" vertex="1">
          <mxGeometry y="30" width="430" height="40" as="geometry" />
        </mxCell>
        <mxCell id="KwM0fEK1zE-uCKd_Dp6U-32" value="PK" style="shape=partialRectangle;connectable=0;fillColor=none;top=0;left=0;bottom=0;right=0;fontStyle=1;overflow=hidden;labelBorderColor=none;fontSize=16;" parent="KwM0fEK1zE-uCKd_Dp6U-31" vertex="1">
          <mxGeometry width="40" height="40" as="geometry">
            <mxRectangle width="40" height="40" as="alternateBounds" />
          </mxGeometry>
        </mxCell>
        <mxCell id="KwM0fEK1zE-uCKd_Dp6U-33" value="CakeID" style="shape=partialRectangle;connectable=0;fillColor=none;top=0;left=0;bottom=0;right=0;align=left;spacingLeft=6;fontStyle=5;overflow=hidden;labelBorderColor=none;fontSize=16;" parent="KwM0fEK1zE-uCKd_Dp6U-31" vertex="1">
          <mxGeometry x="40" width="180" height="40" as="geometry">
            <mxRectangle width="180" height="40" as="alternateBounds" />
          </mxGeometry>
        </mxCell>
        <mxCell id="KwM0fEK1zE-uCKd_Dp6U-34" value="int NOT NULL" style="shape=partialRectangle;connectable=0;fillColor=none;top=0;left=0;bottom=0;right=0;align=left;spacingLeft=6;fontStyle=1;overflow=hidden;labelBorderColor=none;fontSize=16;" parent="KwM0fEK1zE-uCKd_Dp6U-31" vertex="1">
          <mxGeometry x="220" width="210" height="40" as="geometry">
            <mxRectangle width="210" height="40" as="alternateBounds" />
          </mxGeometry>
        </mxCell>
        <mxCell id="KwM0fEK1zE-uCKd_Dp6U-35" value="" style="shape=tableRow;horizontal=0;startSize=0;swimlaneHead=0;swimlaneBody=0;fillColor=none;collapsible=0;dropTarget=0;points=[[0,0.5],[1,0.5]];portConstraint=eastwest;top=0;left=0;right=0;bottom=0;labelBorderColor=none;fontSize=16;" parent="KwM0fEK1zE-uCKd_Dp6U-30" vertex="1">
          <mxGeometry y="70" width="430" height="30" as="geometry" />
        </mxCell>
        <mxCell id="KwM0fEK1zE-uCKd_Dp6U-36" value="" style="shape=partialRectangle;connectable=0;fillColor=none;top=0;left=0;bottom=0;right=0;editable=1;overflow=hidden;labelBorderColor=none;fontSize=16;" parent="KwM0fEK1zE-uCKd_Dp6U-35" vertex="1">
          <mxGeometry width="40" height="30" as="geometry">
            <mxRectangle width="40" height="30" as="alternateBounds" />
          </mxGeometry>
        </mxCell>
        <mxCell id="KwM0fEK1zE-uCKd_Dp6U-37" value="CakeDescription" style="shape=partialRectangle;connectable=0;fillColor=none;top=0;left=0;bottom=0;right=0;align=left;spacingLeft=6;overflow=hidden;labelBorderColor=none;fontSize=16;" parent="KwM0fEK1zE-uCKd_Dp6U-35" vertex="1">
          <mxGeometry x="40" width="180" height="30" as="geometry">
            <mxRectangle width="180" height="30" as="alternateBounds" />
          </mxGeometry>
        </mxCell>
        <mxCell id="KwM0fEK1zE-uCKd_Dp6U-38" value="varchar(1000) NOT NULL" style="shape=partialRectangle;connectable=0;fillColor=none;top=0;left=0;bottom=0;right=0;align=left;spacingLeft=6;overflow=hidden;labelBorderColor=none;fontSize=16;" parent="KwM0fEK1zE-uCKd_Dp6U-35" vertex="1">
          <mxGeometry x="220" width="210" height="30" as="geometry">
            <mxRectangle width="210" height="30" as="alternateBounds" />
          </mxGeometry>
        </mxCell>
        <mxCell id="KwM0fEK1zE-uCKd_Dp6U-39" style="shape=tableRow;horizontal=0;startSize=0;swimlaneHead=0;swimlaneBody=0;fillColor=none;collapsible=0;dropTarget=0;points=[[0,0.5],[1,0.5]];portConstraint=eastwest;top=0;left=0;right=0;bottom=0;labelBorderColor=none;fontSize=16;" parent="KwM0fEK1zE-uCKd_Dp6U-30" vertex="1">
          <mxGeometry y="100" width="430" height="30" as="geometry" />
        </mxCell>
        <mxCell id="KwM0fEK1zE-uCKd_Dp6U-40" style="shape=partialRectangle;connectable=0;fillColor=none;top=0;left=0;bottom=0;right=0;editable=1;overflow=hidden;labelBorderColor=none;fontSize=16;" parent="KwM0fEK1zE-uCKd_Dp6U-39" vertex="1">
          <mxGeometry width="40" height="30" as="geometry">
            <mxRectangle width="40" height="30" as="alternateBounds" />
          </mxGeometry>
        </mxCell>
        <mxCell id="KwM0fEK1zE-uCKd_Dp6U-41" value="CakeRecipe" style="shape=partialRectangle;connectable=0;fillColor=none;top=0;left=0;bottom=0;right=0;align=left;spacingLeft=6;overflow=hidden;labelBorderColor=none;fontSize=16;" parent="KwM0fEK1zE-uCKd_Dp6U-39" vertex="1">
          <mxGeometry x="40" width="180" height="30" as="geometry">
            <mxRectangle width="180" height="30" as="alternateBounds" />
          </mxGeometry>
        </mxCell>
        <mxCell id="KwM0fEK1zE-uCKd_Dp6U-42" value="varchar(2000) NOT NULL" style="shape=partialRectangle;connectable=0;fillColor=none;top=0;left=0;bottom=0;right=0;align=left;spacingLeft=6;overflow=hidden;labelBorderColor=none;fontSize=16;" parent="KwM0fEK1zE-uCKd_Dp6U-39" vertex="1">
          <mxGeometry x="220" width="210" height="30" as="geometry">
            <mxRectangle width="210" height="30" as="alternateBounds" />
          </mxGeometry>
        </mxCell>
        <mxCell id="KwM0fEK1zE-uCKd_Dp6U-248" style="shape=tableRow;horizontal=0;startSize=0;swimlaneHead=0;swimlaneBody=0;fillColor=none;collapsible=0;dropTarget=0;points=[[0,0.5],[1,0.5]];portConstraint=eastwest;top=0;left=0;right=0;bottom=0;labelBorderColor=none;fontSize=16;" parent="KwM0fEK1zE-uCKd_Dp6U-30" vertex="1">
          <mxGeometry y="130" width="430" height="30" as="geometry" />
        </mxCell>
        <mxCell id="KwM0fEK1zE-uCKd_Dp6U-249" value="FK" style="shape=partialRectangle;connectable=0;fillColor=none;top=0;left=0;bottom=0;right=0;editable=1;overflow=hidden;labelBorderColor=none;fontSize=16;" parent="KwM0fEK1zE-uCKd_Dp6U-248" vertex="1">
          <mxGeometry width="40" height="30" as="geometry">
            <mxRectangle width="40" height="30" as="alternateBounds" />
          </mxGeometry>
        </mxCell>
        <mxCell id="KwM0fEK1zE-uCKd_Dp6U-250" value="BaseID" style="shape=partialRectangle;connectable=0;fillColor=none;top=0;left=0;bottom=0;right=0;align=left;spacingLeft=6;overflow=hidden;labelBorderColor=none;fontSize=16;" parent="KwM0fEK1zE-uCKd_Dp6U-248" vertex="1">
          <mxGeometry x="40" width="180" height="30" as="geometry">
            <mxRectangle width="180" height="30" as="alternateBounds" />
          </mxGeometry>
        </mxCell>
        <mxCell id="KwM0fEK1zE-uCKd_Dp6U-251" value="int NOT NULL" style="shape=partialRectangle;connectable=0;fillColor=none;top=0;left=0;bottom=0;right=0;align=left;spacingLeft=6;overflow=hidden;labelBorderColor=none;fontSize=16;" parent="KwM0fEK1zE-uCKd_Dp6U-248" vertex="1">
          <mxGeometry x="220" width="210" height="30" as="geometry">
            <mxRectangle width="210" height="30" as="alternateBounds" />
          </mxGeometry>
        </mxCell>
        <mxCell id="KwM0fEK1zE-uCKd_Dp6U-256" style="shape=tableRow;horizontal=0;startSize=0;swimlaneHead=0;swimlaneBody=0;fillColor=none;collapsible=0;dropTarget=0;points=[[0,0.5],[1,0.5]];portConstraint=eastwest;top=0;left=0;right=0;bottom=0;labelBorderColor=none;fontSize=16;" parent="KwM0fEK1zE-uCKd_Dp6U-30" vertex="1">
          <mxGeometry y="160" width="430" height="30" as="geometry" />
        </mxCell>
        <mxCell id="KwM0fEK1zE-uCKd_Dp6U-257" value="FK" style="shape=partialRectangle;connectable=0;fillColor=none;top=0;left=0;bottom=0;right=0;editable=1;overflow=hidden;labelBorderColor=none;fontSize=16;" parent="KwM0fEK1zE-uCKd_Dp6U-256" vertex="1">
          <mxGeometry width="40" height="30" as="geometry">
            <mxRectangle width="40" height="30" as="alternateBounds" />
          </mxGeometry>
        </mxCell>
        <mxCell id="KwM0fEK1zE-uCKd_Dp6U-258" value="IcingID" style="shape=partialRectangle;connectable=0;fillColor=none;top=0;left=0;bottom=0;right=0;align=left;spacingLeft=6;overflow=hidden;labelBorderColor=none;fontSize=16;" parent="KwM0fEK1zE-uCKd_Dp6U-256" vertex="1">
          <mxGeometry x="40" width="180" height="30" as="geometry">
            <mxRectangle width="180" height="30" as="alternateBounds" />
          </mxGeometry>
        </mxCell>
        <mxCell id="KwM0fEK1zE-uCKd_Dp6U-259" value="int NOT NULL" style="shape=partialRectangle;connectable=0;fillColor=none;top=0;left=0;bottom=0;right=0;align=left;spacingLeft=6;overflow=hidden;labelBorderColor=none;fontSize=16;" parent="KwM0fEK1zE-uCKd_Dp6U-256" vertex="1">
          <mxGeometry x="220" width="210" height="30" as="geometry">
            <mxRectangle width="210" height="30" as="alternateBounds" />
          </mxGeometry>
        </mxCell>
        <mxCell id="KwM0fEK1zE-uCKd_Dp6U-252" style="shape=tableRow;horizontal=0;startSize=0;swimlaneHead=0;swimlaneBody=0;fillColor=none;collapsible=0;dropTarget=0;points=[[0,0.5],[1,0.5]];portConstraint=eastwest;top=0;left=0;right=0;bottom=0;labelBorderColor=none;fontSize=16;" parent="KwM0fEK1zE-uCKd_Dp6U-30" vertex="1">
          <mxGeometry y="190" width="430" height="30" as="geometry" />
        </mxCell>
        <mxCell id="KwM0fEK1zE-uCKd_Dp6U-253" value="FK" style="shape=partialRectangle;connectable=0;fillColor=none;top=0;left=0;bottom=0;right=0;editable=1;overflow=hidden;labelBorderColor=none;fontSize=16;" parent="KwM0fEK1zE-uCKd_Dp6U-252" vertex="1">
          <mxGeometry width="40" height="30" as="geometry">
            <mxRectangle width="40" height="30" as="alternateBounds" />
          </mxGeometry>
        </mxCell>
        <mxCell id="KwM0fEK1zE-uCKd_Dp6U-254" value="ToppingID" style="shape=partialRectangle;connectable=0;fillColor=none;top=0;left=0;bottom=0;right=0;align=left;spacingLeft=6;overflow=hidden;labelBorderColor=none;fontSize=16;" parent="KwM0fEK1zE-uCKd_Dp6U-252" vertex="1">
          <mxGeometry x="40" width="180" height="30" as="geometry">
            <mxRectangle width="180" height="30" as="alternateBounds" />
          </mxGeometry>
        </mxCell>
        <mxCell id="KwM0fEK1zE-uCKd_Dp6U-255" value="int NOT NULL" style="shape=partialRectangle;connectable=0;fillColor=none;top=0;left=0;bottom=0;right=0;align=left;spacingLeft=6;overflow=hidden;labelBorderColor=none;fontSize=16;" parent="KwM0fEK1zE-uCKd_Dp6U-252" vertex="1">
          <mxGeometry x="220" width="210" height="30" as="geometry">
            <mxRectangle width="210" height="30" as="alternateBounds" />
          </mxGeometry>
        </mxCell>
        <mxCell id="KwM0fEK1zE-uCKd_Dp6U-331" style="shape=tableRow;horizontal=0;startSize=0;swimlaneHead=0;swimlaneBody=0;fillColor=none;collapsible=0;dropTarget=0;points=[[0,0.5],[1,0.5]];portConstraint=eastwest;top=0;left=0;right=0;bottom=0;labelBorderColor=none;fontSize=16;" parent="KwM0fEK1zE-uCKd_Dp6U-30" vertex="1">
          <mxGeometry y="220" width="430" height="30" as="geometry" />
        </mxCell>
        <mxCell id="KwM0fEK1zE-uCKd_Dp6U-332" value="FK" style="shape=partialRectangle;connectable=0;fillColor=none;top=0;left=0;bottom=0;right=0;editable=1;overflow=hidden;labelBorderColor=none;fontSize=16;" parent="KwM0fEK1zE-uCKd_Dp6U-331" vertex="1">
          <mxGeometry width="40" height="30" as="geometry">
            <mxRectangle width="40" height="30" as="alternateBounds" />
          </mxGeometry>
        </mxCell>
        <mxCell id="KwM0fEK1zE-uCKd_Dp6U-333" value="ShapeID" style="shape=partialRectangle;connectable=0;fillColor=none;top=0;left=0;bottom=0;right=0;align=left;spacingLeft=6;overflow=hidden;labelBorderColor=none;fontSize=16;" parent="KwM0fEK1zE-uCKd_Dp6U-331" vertex="1">
          <mxGeometry x="40" width="180" height="30" as="geometry">
            <mxRectangle width="180" height="30" as="alternateBounds" />
          </mxGeometry>
        </mxCell>
        <mxCell id="KwM0fEK1zE-uCKd_Dp6U-334" value="int NOT NULL" style="shape=partialRectangle;connectable=0;fillColor=none;top=0;left=0;bottom=0;right=0;align=left;spacingLeft=6;overflow=hidden;labelBorderColor=none;fontSize=16;" parent="KwM0fEK1zE-uCKd_Dp6U-331" vertex="1">
          <mxGeometry x="220" width="210" height="30" as="geometry">
            <mxRectangle width="210" height="30" as="alternateBounds" />
          </mxGeometry>
        </mxCell>
        <mxCell id="KwM0fEK1zE-uCKd_Dp6U-43" value="" style="shape=tableRow;horizontal=0;startSize=0;swimlaneHead=0;swimlaneBody=0;fillColor=none;collapsible=0;dropTarget=0;points=[[0,0.5],[1,0.5]];portConstraint=eastwest;top=0;left=0;right=0;bottom=0;labelBorderColor=none;fontSize=16;" parent="KwM0fEK1zE-uCKd_Dp6U-30" vertex="1">
          <mxGeometry y="250" width="430" height="30" as="geometry" />
        </mxCell>
        <mxCell id="KwM0fEK1zE-uCKd_Dp6U-44" value="" style="shape=partialRectangle;connectable=0;fillColor=none;top=0;left=0;bottom=0;right=0;editable=1;overflow=hidden;labelBorderColor=none;fontSize=16;" parent="KwM0fEK1zE-uCKd_Dp6U-43" vertex="1">
          <mxGeometry width="40" height="30" as="geometry">
            <mxRectangle width="40" height="30" as="alternateBounds" />
          </mxGeometry>
        </mxCell>
        <mxCell id="KwM0fEK1zE-uCKd_Dp6U-45" value="ProductionCost" style="shape=partialRectangle;connectable=0;fillColor=none;top=0;left=0;bottom=0;right=0;align=left;spacingLeft=6;overflow=hidden;labelBorderColor=none;fontSize=16;" parent="KwM0fEK1zE-uCKd_Dp6U-43" vertex="1">
          <mxGeometry x="40" width="180" height="30" as="geometry">
            <mxRectangle width="180" height="30" as="alternateBounds" />
          </mxGeometry>
        </mxCell>
        <mxCell id="KwM0fEK1zE-uCKd_Dp6U-46" value="smallmoney NOT NULL" style="shape=partialRectangle;connectable=0;fillColor=none;top=0;left=0;bottom=0;right=0;align=left;spacingLeft=6;overflow=hidden;labelBorderColor=none;fontSize=16;" parent="KwM0fEK1zE-uCKd_Dp6U-43" vertex="1">
          <mxGeometry x="220" width="210" height="30" as="geometry">
            <mxRectangle width="210" height="30" as="alternateBounds" />
          </mxGeometry>
        </mxCell>
        <mxCell id="KwM0fEK1zE-uCKd_Dp6U-47" style="shape=tableRow;horizontal=0;startSize=0;swimlaneHead=0;swimlaneBody=0;fillColor=none;collapsible=0;dropTarget=0;points=[[0,0.5],[1,0.5]];portConstraint=eastwest;top=0;left=0;right=0;bottom=0;labelBorderColor=none;fontSize=16;" parent="KwM0fEK1zE-uCKd_Dp6U-30" vertex="1">
          <mxGeometry y="280" width="430" height="30" as="geometry" />
        </mxCell>
        <mxCell id="KwM0fEK1zE-uCKd_Dp6U-48" value="FK" style="shape=partialRectangle;connectable=0;fillColor=none;top=0;left=0;bottom=0;right=0;editable=1;overflow=hidden;labelBorderColor=none;fontSize=16;" parent="KwM0fEK1zE-uCKd_Dp6U-47" vertex="1">
          <mxGeometry width="40" height="30" as="geometry">
            <mxRectangle width="40" height="30" as="alternateBounds" />
          </mxGeometry>
        </mxCell>
        <mxCell id="KwM0fEK1zE-uCKd_Dp6U-49" value="InventedByCustomerID" style="shape=partialRectangle;connectable=0;fillColor=none;top=0;left=0;bottom=0;right=0;align=left;spacingLeft=6;overflow=hidden;labelBorderColor=none;fontSize=16;" parent="KwM0fEK1zE-uCKd_Dp6U-47" vertex="1">
          <mxGeometry x="40" width="180" height="30" as="geometry">
            <mxRectangle width="180" height="30" as="alternateBounds" />
          </mxGeometry>
        </mxCell>
        <mxCell id="KwM0fEK1zE-uCKd_Dp6U-50" value="int NOT NULL" style="shape=partialRectangle;connectable=0;fillColor=none;top=0;left=0;bottom=0;right=0;align=left;spacingLeft=6;overflow=hidden;labelBorderColor=none;fontSize=16;" parent="KwM0fEK1zE-uCKd_Dp6U-47" vertex="1">
          <mxGeometry x="220" width="210" height="30" as="geometry">
            <mxRectangle width="210" height="30" as="alternateBounds" />
          </mxGeometry>
        </mxCell>
        <mxCell id="KwM0fEK1zE-uCKd_Dp6U-156" value="Delivery" style="shape=table;startSize=30;container=1;collapsible=1;childLayout=tableLayout;fixedRows=1;rowLines=0;fontStyle=1;align=center;resizeLast=1;labelBorderColor=none;fontSize=16;" parent="KwM0fEK1zE-uCKd_Dp6U-1" vertex="1">
          <mxGeometry x="-1510" y="2200" width="340" height="160" as="geometry" />
        </mxCell>
        <mxCell id="KwM0fEK1zE-uCKd_Dp6U-157" value="" style="shape=tableRow;horizontal=0;startSize=0;swimlaneHead=0;swimlaneBody=0;fillColor=none;collapsible=0;dropTarget=0;points=[[0,0.5],[1,0.5]];portConstraint=eastwest;top=0;left=0;right=0;bottom=1;labelBorderColor=none;fontSize=16;" parent="KwM0fEK1zE-uCKd_Dp6U-156" vertex="1">
          <mxGeometry y="30" width="340" height="30" as="geometry" />
        </mxCell>
        <mxCell id="KwM0fEK1zE-uCKd_Dp6U-158" value="PK" style="shape=partialRectangle;connectable=0;fillColor=none;top=0;left=0;bottom=0;right=0;fontStyle=1;overflow=hidden;labelBorderColor=none;fontSize=16;" parent="KwM0fEK1zE-uCKd_Dp6U-157" vertex="1">
          <mxGeometry width="40" height="30" as="geometry">
            <mxRectangle width="40" height="30" as="alternateBounds" />
          </mxGeometry>
        </mxCell>
        <mxCell id="KwM0fEK1zE-uCKd_Dp6U-159" value="OrderID" style="shape=partialRectangle;connectable=0;fillColor=none;top=0;left=0;bottom=0;right=0;align=left;spacingLeft=6;fontStyle=5;overflow=hidden;labelBorderColor=none;fontSize=16;" parent="KwM0fEK1zE-uCKd_Dp6U-157" vertex="1">
          <mxGeometry x="40" width="130" height="30" as="geometry">
            <mxRectangle width="130" height="30" as="alternateBounds" />
          </mxGeometry>
        </mxCell>
        <mxCell id="KwM0fEK1zE-uCKd_Dp6U-160" value="int NOT NULL" style="shape=partialRectangle;connectable=0;fillColor=none;top=0;left=0;bottom=0;right=0;align=left;spacingLeft=6;fontStyle=1;overflow=hidden;labelBorderColor=none;fontSize=16;" parent="KwM0fEK1zE-uCKd_Dp6U-157" vertex="1">
          <mxGeometry x="170" width="170" height="30" as="geometry">
            <mxRectangle width="170" height="30" as="alternateBounds" />
          </mxGeometry>
        </mxCell>
        <mxCell id="KwM0fEK1zE-uCKd_Dp6U-161" style="shape=tableRow;horizontal=0;startSize=0;swimlaneHead=0;swimlaneBody=0;fillColor=none;collapsible=0;dropTarget=0;points=[[0,0.5],[1,0.5]];portConstraint=eastwest;top=0;left=0;right=0;bottom=0;labelBorderColor=none;fontSize=16;" parent="KwM0fEK1zE-uCKd_Dp6U-156" vertex="1">
          <mxGeometry y="60" width="340" height="30" as="geometry" />
        </mxCell>
        <mxCell id="KwM0fEK1zE-uCKd_Dp6U-162" value="FK" style="shape=partialRectangle;connectable=0;fillColor=none;top=0;left=0;bottom=0;right=0;editable=1;overflow=hidden;labelBorderColor=none;fontSize=16;" parent="KwM0fEK1zE-uCKd_Dp6U-161" vertex="1">
          <mxGeometry width="40" height="30" as="geometry">
            <mxRectangle width="40" height="30" as="alternateBounds" />
          </mxGeometry>
        </mxCell>
        <mxCell id="KwM0fEK1zE-uCKd_Dp6U-163" value="DeliveryLocation" style="shape=partialRectangle;connectable=0;fillColor=none;top=0;left=0;bottom=0;right=0;align=left;spacingLeft=6;overflow=hidden;labelBorderColor=none;fontSize=16;" parent="KwM0fEK1zE-uCKd_Dp6U-161" vertex="1">
          <mxGeometry x="40" width="130" height="30" as="geometry">
            <mxRectangle width="130" height="30" as="alternateBounds" />
          </mxGeometry>
        </mxCell>
        <mxCell id="KwM0fEK1zE-uCKd_Dp6U-164" value="int NOT NULL" style="shape=partialRectangle;connectable=0;fillColor=none;top=0;left=0;bottom=0;right=0;align=left;spacingLeft=6;overflow=hidden;labelBorderColor=none;fontSize=16;" parent="KwM0fEK1zE-uCKd_Dp6U-161" vertex="1">
          <mxGeometry x="170" width="170" height="30" as="geometry">
            <mxRectangle width="170" height="30" as="alternateBounds" />
          </mxGeometry>
        </mxCell>
        <mxCell id="KwM0fEK1zE-uCKd_Dp6U-165" value="" style="shape=tableRow;horizontal=0;startSize=0;swimlaneHead=0;swimlaneBody=0;fillColor=none;collapsible=0;dropTarget=0;points=[[0,0.5],[1,0.5]];portConstraint=eastwest;top=0;left=0;right=0;bottom=0;labelBorderColor=none;fontSize=16;" parent="KwM0fEK1zE-uCKd_Dp6U-156" vertex="1">
          <mxGeometry y="90" width="340" height="30" as="geometry" />
        </mxCell>
        <mxCell id="KwM0fEK1zE-uCKd_Dp6U-166" value="FK" style="shape=partialRectangle;connectable=0;fillColor=none;top=0;left=0;bottom=0;right=0;editable=1;overflow=hidden;labelBorderColor=none;fontSize=16;" parent="KwM0fEK1zE-uCKd_Dp6U-165" vertex="1">
          <mxGeometry width="40" height="30" as="geometry">
            <mxRectangle width="40" height="30" as="alternateBounds" />
          </mxGeometry>
        </mxCell>
        <mxCell id="KwM0fEK1zE-uCKd_Dp6U-167" value="StatusID" style="shape=partialRectangle;connectable=0;fillColor=none;top=0;left=0;bottom=0;right=0;align=left;spacingLeft=6;overflow=hidden;labelBorderColor=none;fontSize=16;" parent="KwM0fEK1zE-uCKd_Dp6U-165" vertex="1">
          <mxGeometry x="40" width="130" height="30" as="geometry">
            <mxRectangle width="130" height="30" as="alternateBounds" />
          </mxGeometry>
        </mxCell>
        <mxCell id="KwM0fEK1zE-uCKd_Dp6U-168" value="tinyint NOT NULL" style="shape=partialRectangle;connectable=0;fillColor=none;top=0;left=0;bottom=0;right=0;align=left;spacingLeft=6;overflow=hidden;labelBorderColor=none;fontSize=16;" parent="KwM0fEK1zE-uCKd_Dp6U-165" vertex="1">
          <mxGeometry x="170" width="170" height="30" as="geometry">
            <mxRectangle width="170" height="30" as="alternateBounds" />
          </mxGeometry>
        </mxCell>
        <mxCell id="KwM0fEK1zE-uCKd_Dp6U-169" value="" style="shape=tableRow;horizontal=0;startSize=0;swimlaneHead=0;swimlaneBody=0;fillColor=none;collapsible=0;dropTarget=0;points=[[0,0.5],[1,0.5]];portConstraint=eastwest;top=0;left=0;right=0;bottom=0;labelBorderColor=none;fontSize=16;" parent="KwM0fEK1zE-uCKd_Dp6U-156" vertex="1">
          <mxGeometry y="120" width="340" height="30" as="geometry" />
        </mxCell>
        <mxCell id="KwM0fEK1zE-uCKd_Dp6U-170" value="" style="shape=partialRectangle;connectable=0;fillColor=none;top=0;left=0;bottom=0;right=0;editable=1;overflow=hidden;labelBorderColor=none;fontSize=16;" parent="KwM0fEK1zE-uCKd_Dp6U-169" vertex="1">
          <mxGeometry width="40" height="30" as="geometry">
            <mxRectangle width="40" height="30" as="alternateBounds" />
          </mxGeometry>
        </mxCell>
        <mxCell id="KwM0fEK1zE-uCKd_Dp6U-171" value="DeliveryNote" style="shape=partialRectangle;connectable=0;fillColor=none;top=0;left=0;bottom=0;right=0;align=left;spacingLeft=6;overflow=hidden;labelBorderColor=none;fontSize=16;" parent="KwM0fEK1zE-uCKd_Dp6U-169" vertex="1">
          <mxGeometry x="40" width="130" height="30" as="geometry">
            <mxRectangle width="130" height="30" as="alternateBounds" />
          </mxGeometry>
        </mxCell>
        <mxCell id="KwM0fEK1zE-uCKd_Dp6U-172" value="varchar(500) NULL" style="shape=partialRectangle;connectable=0;fillColor=none;top=0;left=0;bottom=0;right=0;align=left;spacingLeft=6;overflow=hidden;labelBorderColor=none;fontSize=16;" parent="KwM0fEK1zE-uCKd_Dp6U-169" vertex="1">
          <mxGeometry x="170" width="170" height="30" as="geometry">
            <mxRectangle width="170" height="30" as="alternateBounds" />
          </mxGeometry>
        </mxCell>
        <mxCell id="KwM0fEK1zE-uCKd_Dp6U-125" value="Order" style="shape=table;startSize=30;container=1;collapsible=1;childLayout=tableLayout;fixedRows=1;rowLines=0;fontStyle=1;align=center;resizeLast=1;labelBorderColor=none;fontSize=16;" parent="KwM0fEK1zE-uCKd_Dp6U-1" vertex="1">
          <mxGeometry x="-1511" y="1934" width="340" height="210" as="geometry" />
        </mxCell>
        <mxCell id="KwM0fEK1zE-uCKd_Dp6U-126" value="" style="shape=tableRow;horizontal=0;startSize=0;swimlaneHead=0;swimlaneBody=0;fillColor=none;collapsible=0;dropTarget=0;points=[[0,0.5],[1,0.5]];portConstraint=eastwest;top=0;left=0;right=0;bottom=1;labelBorderColor=none;fontSize=16;" parent="KwM0fEK1zE-uCKd_Dp6U-125" vertex="1">
          <mxGeometry y="30" width="340" height="40" as="geometry" />
        </mxCell>
        <mxCell id="KwM0fEK1zE-uCKd_Dp6U-127" value="PK" style="shape=partialRectangle;connectable=0;fillColor=none;top=0;left=0;bottom=0;right=0;fontStyle=1;overflow=hidden;labelBorderColor=none;fontSize=16;" parent="KwM0fEK1zE-uCKd_Dp6U-126" vertex="1">
          <mxGeometry width="40" height="40" as="geometry">
            <mxRectangle width="40" height="40" as="alternateBounds" />
          </mxGeometry>
        </mxCell>
        <mxCell id="KwM0fEK1zE-uCKd_Dp6U-128" value="OrderID" style="shape=partialRectangle;connectable=0;fillColor=none;top=0;left=0;bottom=0;right=0;align=left;spacingLeft=6;fontStyle=5;overflow=hidden;labelBorderColor=none;fontSize=16;" parent="KwM0fEK1zE-uCKd_Dp6U-126" vertex="1">
          <mxGeometry x="40" width="100" height="40" as="geometry">
            <mxRectangle width="100" height="40" as="alternateBounds" />
          </mxGeometry>
        </mxCell>
        <mxCell id="KwM0fEK1zE-uCKd_Dp6U-129" value="int NOT NULL" style="shape=partialRectangle;connectable=0;fillColor=none;top=0;left=0;bottom=0;right=0;align=left;spacingLeft=6;fontStyle=1;overflow=hidden;labelBorderColor=none;fontSize=16;" parent="KwM0fEK1zE-uCKd_Dp6U-126" vertex="1">
          <mxGeometry x="140" width="200" height="40" as="geometry">
            <mxRectangle width="200" height="40" as="alternateBounds" />
          </mxGeometry>
        </mxCell>
        <mxCell id="KwM0fEK1zE-uCKd_Dp6U-130" value="" style="shape=tableRow;horizontal=0;startSize=0;swimlaneHead=0;swimlaneBody=0;fillColor=none;collapsible=0;dropTarget=0;points=[[0,0.5],[1,0.5]];portConstraint=eastwest;top=0;left=0;right=0;bottom=0;labelBorderColor=none;fontSize=16;" parent="KwM0fEK1zE-uCKd_Dp6U-125" vertex="1">
          <mxGeometry y="70" width="340" height="30" as="geometry" />
        </mxCell>
        <mxCell id="KwM0fEK1zE-uCKd_Dp6U-131" value="FK" style="shape=partialRectangle;connectable=0;fillColor=none;top=0;left=0;bottom=0;right=0;editable=1;overflow=hidden;labelBorderColor=none;fontSize=16;" parent="KwM0fEK1zE-uCKd_Dp6U-130" vertex="1">
          <mxGeometry width="40" height="30" as="geometry">
            <mxRectangle width="40" height="30" as="alternateBounds" />
          </mxGeometry>
        </mxCell>
        <mxCell id="KwM0fEK1zE-uCKd_Dp6U-132" value="CustomerID" style="shape=partialRectangle;connectable=0;fillColor=none;top=0;left=0;bottom=0;right=0;align=left;spacingLeft=6;overflow=hidden;labelBorderColor=none;fontSize=16;" parent="KwM0fEK1zE-uCKd_Dp6U-130" vertex="1">
          <mxGeometry x="40" width="100" height="30" as="geometry">
            <mxRectangle width="100" height="30" as="alternateBounds" />
          </mxGeometry>
        </mxCell>
        <mxCell id="KwM0fEK1zE-uCKd_Dp6U-133" value="int NOT NULL" style="shape=partialRectangle;connectable=0;fillColor=none;top=0;left=0;bottom=0;right=0;align=left;spacingLeft=6;overflow=hidden;labelBorderColor=none;fontSize=16;" parent="KwM0fEK1zE-uCKd_Dp6U-130" vertex="1">
          <mxGeometry x="140" width="200" height="30" as="geometry">
            <mxRectangle width="200" height="30" as="alternateBounds" />
          </mxGeometry>
        </mxCell>
        <mxCell id="KwM0fEK1zE-uCKd_Dp6U-134" value="" style="shape=tableRow;horizontal=0;startSize=0;swimlaneHead=0;swimlaneBody=0;fillColor=none;collapsible=0;dropTarget=0;points=[[0,0.5],[1,0.5]];portConstraint=eastwest;top=0;left=0;right=0;bottom=0;labelBorderColor=none;fontSize=16;" parent="KwM0fEK1zE-uCKd_Dp6U-125" vertex="1">
          <mxGeometry y="100" width="340" height="30" as="geometry" />
        </mxCell>
        <mxCell id="KwM0fEK1zE-uCKd_Dp6U-135" value="FK" style="shape=partialRectangle;connectable=0;fillColor=none;top=0;left=0;bottom=0;right=0;editable=1;overflow=hidden;labelBorderColor=none;fontSize=16;" parent="KwM0fEK1zE-uCKd_Dp6U-134" vertex="1">
          <mxGeometry width="40" height="30" as="geometry">
            <mxRectangle width="40" height="30" as="alternateBounds" />
          </mxGeometry>
        </mxCell>
        <mxCell id="KwM0fEK1zE-uCKd_Dp6U-136" value="StatusID" style="shape=partialRectangle;connectable=0;fillColor=none;top=0;left=0;bottom=0;right=0;align=left;spacingLeft=6;overflow=hidden;labelBorderColor=none;fontSize=16;" parent="KwM0fEK1zE-uCKd_Dp6U-134" vertex="1">
          <mxGeometry x="40" width="100" height="30" as="geometry">
            <mxRectangle width="100" height="30" as="alternateBounds" />
          </mxGeometry>
        </mxCell>
        <mxCell id="KwM0fEK1zE-uCKd_Dp6U-137" value="tinyint NOT NULL" style="shape=partialRectangle;connectable=0;fillColor=none;top=0;left=0;bottom=0;right=0;align=left;spacingLeft=6;overflow=hidden;labelBorderColor=none;fontSize=16;" parent="KwM0fEK1zE-uCKd_Dp6U-134" vertex="1">
          <mxGeometry x="140" width="200" height="30" as="geometry">
            <mxRectangle width="200" height="30" as="alternateBounds" />
          </mxGeometry>
        </mxCell>
        <mxCell id="KwM0fEK1zE-uCKd_Dp6U-138" style="shape=tableRow;horizontal=0;startSize=0;swimlaneHead=0;swimlaneBody=0;fillColor=none;collapsible=0;dropTarget=0;points=[[0,0.5],[1,0.5]];portConstraint=eastwest;top=0;left=0;right=0;bottom=0;labelBorderColor=none;fontSize=16;" parent="KwM0fEK1zE-uCKd_Dp6U-125" vertex="1">
          <mxGeometry y="130" width="340" height="30" as="geometry" />
        </mxCell>
        <mxCell id="KwM0fEK1zE-uCKd_Dp6U-139" style="shape=partialRectangle;connectable=0;fillColor=none;top=0;left=0;bottom=0;right=0;editable=1;overflow=hidden;labelBorderColor=none;fontSize=16;" parent="KwM0fEK1zE-uCKd_Dp6U-138" vertex="1">
          <mxGeometry width="40" height="30" as="geometry">
            <mxRectangle width="40" height="30" as="alternateBounds" />
          </mxGeometry>
        </mxCell>
        <mxCell id="KwM0fEK1zE-uCKd_Dp6U-140" value="OrderDate" style="shape=partialRectangle;connectable=0;fillColor=none;top=0;left=0;bottom=0;right=0;align=left;spacingLeft=6;overflow=hidden;labelBorderColor=none;fontSize=16;" parent="KwM0fEK1zE-uCKd_Dp6U-138" vertex="1">
          <mxGeometry x="40" width="100" height="30" as="geometry">
            <mxRectangle width="100" height="30" as="alternateBounds" />
          </mxGeometry>
        </mxCell>
        <mxCell id="KwM0fEK1zE-uCKd_Dp6U-141" value="date NOT NULL" style="shape=partialRectangle;connectable=0;fillColor=none;top=0;left=0;bottom=0;right=0;align=left;spacingLeft=6;overflow=hidden;labelBorderColor=none;fontSize=16;" parent="KwM0fEK1zE-uCKd_Dp6U-138" vertex="1">
          <mxGeometry x="140" width="200" height="30" as="geometry">
            <mxRectangle width="200" height="30" as="alternateBounds" />
          </mxGeometry>
        </mxCell>
        <mxCell id="KwM0fEK1zE-uCKd_Dp6U-142" style="shape=tableRow;horizontal=0;startSize=0;swimlaneHead=0;swimlaneBody=0;fillColor=none;collapsible=0;dropTarget=0;points=[[0,0.5],[1,0.5]];portConstraint=eastwest;top=0;left=0;right=0;bottom=0;labelBorderColor=none;fontSize=16;" parent="KwM0fEK1zE-uCKd_Dp6U-125" vertex="1">
          <mxGeometry y="160" width="340" height="30" as="geometry" />
        </mxCell>
        <mxCell id="KwM0fEK1zE-uCKd_Dp6U-143" style="shape=partialRectangle;connectable=0;fillColor=none;top=0;left=0;bottom=0;right=0;editable=1;overflow=hidden;labelBorderColor=none;fontSize=16;" parent="KwM0fEK1zE-uCKd_Dp6U-142" vertex="1">
          <mxGeometry width="40" height="30" as="geometry">
            <mxRectangle width="40" height="30" as="alternateBounds" />
          </mxGeometry>
        </mxCell>
        <mxCell id="KwM0fEK1zE-uCKd_Dp6U-144" value="OrderTotal" style="shape=partialRectangle;connectable=0;fillColor=none;top=0;left=0;bottom=0;right=0;align=left;spacingLeft=6;overflow=hidden;labelBorderColor=none;fontSize=16;fontStyle=2" parent="KwM0fEK1zE-uCKd_Dp6U-142" vertex="1">
          <mxGeometry x="40" width="100" height="30" as="geometry">
            <mxRectangle width="100" height="30" as="alternateBounds" />
          </mxGeometry>
        </mxCell>
        <mxCell id="KwM0fEK1zE-uCKd_Dp6U-145" value="smallmoney NULL" style="shape=partialRectangle;connectable=0;fillColor=none;top=0;left=0;bottom=0;right=0;align=left;spacingLeft=6;overflow=hidden;labelBorderColor=none;fontSize=16;fontStyle=2" parent="KwM0fEK1zE-uCKd_Dp6U-142" vertex="1">
          <mxGeometry x="140" width="200" height="30" as="geometry">
            <mxRectangle width="200" height="30" as="alternateBounds" />
          </mxGeometry>
        </mxCell>
        <mxCell id="KwM0fEK1zE-uCKd_Dp6U-184" value="Cart" style="shape=table;startSize=30;container=1;collapsible=1;childLayout=tableLayout;fixedRows=1;rowLines=0;fontStyle=1;align=center;resizeLast=1;labelBorderColor=none;fontSize=16;" parent="KwM0fEK1zE-uCKd_Dp6U-1" vertex="1">
          <mxGeometry x="-1060" y="1935" width="351" height="180" as="geometry" />
        </mxCell>
        <mxCell id="KwM0fEK1zE-uCKd_Dp6U-185" value="" style="shape=tableRow;horizontal=0;startSize=0;swimlaneHead=0;swimlaneBody=0;fillColor=none;collapsible=0;dropTarget=0;points=[[0,0.5],[1,0.5]];portConstraint=eastwest;top=0;left=0;right=0;bottom=0;labelBorderColor=none;fontSize=16;" parent="KwM0fEK1zE-uCKd_Dp6U-184" vertex="1">
          <mxGeometry y="30" width="351" height="30" as="geometry" />
        </mxCell>
        <mxCell id="KwM0fEK1zE-uCKd_Dp6U-186" value="CK,FK" style="shape=partialRectangle;connectable=0;fillColor=none;top=0;left=0;bottom=0;right=0;fontStyle=1;overflow=hidden;labelBorderColor=none;fontSize=16;" parent="KwM0fEK1zE-uCKd_Dp6U-185" vertex="1">
          <mxGeometry width="65" height="30" as="geometry">
            <mxRectangle width="65" height="30" as="alternateBounds" />
          </mxGeometry>
        </mxCell>
        <mxCell id="KwM0fEK1zE-uCKd_Dp6U-187" value="OrderID" style="shape=partialRectangle;connectable=0;fillColor=none;top=0;left=0;bottom=0;right=0;align=left;spacingLeft=6;fontStyle=5;overflow=hidden;labelBorderColor=none;fontSize=16;" parent="KwM0fEK1zE-uCKd_Dp6U-185" vertex="1">
          <mxGeometry x="65" width="90" height="30" as="geometry">
            <mxRectangle width="90" height="30" as="alternateBounds" />
          </mxGeometry>
        </mxCell>
        <mxCell id="KwM0fEK1zE-uCKd_Dp6U-188" value="int NOT NULL" style="shape=partialRectangle;connectable=0;fillColor=none;top=0;left=0;bottom=0;right=0;align=left;spacingLeft=6;fontStyle=1;overflow=hidden;labelBorderColor=none;fontSize=16;" parent="KwM0fEK1zE-uCKd_Dp6U-185" vertex="1">
          <mxGeometry x="155" width="196" height="30" as="geometry">
            <mxRectangle width="196" height="30" as="alternateBounds" />
          </mxGeometry>
        </mxCell>
        <mxCell id="KwM0fEK1zE-uCKd_Dp6U-189" value="" style="shape=tableRow;horizontal=0;startSize=0;swimlaneHead=0;swimlaneBody=0;fillColor=none;collapsible=0;dropTarget=0;points=[[0,0.5],[1,0.5]];portConstraint=eastwest;top=0;left=0;right=0;bottom=1;labelBorderColor=none;fontSize=16;" parent="KwM0fEK1zE-uCKd_Dp6U-184" vertex="1">
          <mxGeometry y="60" width="351" height="40" as="geometry" />
        </mxCell>
        <mxCell id="KwM0fEK1zE-uCKd_Dp6U-190" value="CK,FK" style="shape=partialRectangle;connectable=0;fillColor=none;top=0;left=0;bottom=0;right=0;fontStyle=1;overflow=hidden;labelBorderColor=none;fontSize=16;" parent="KwM0fEK1zE-uCKd_Dp6U-189" vertex="1">
          <mxGeometry width="65" height="40" as="geometry">
            <mxRectangle width="65" height="40" as="alternateBounds" />
          </mxGeometry>
        </mxCell>
        <mxCell id="KwM0fEK1zE-uCKd_Dp6U-191" value="CakeID" style="shape=partialRectangle;connectable=0;fillColor=none;top=0;left=0;bottom=0;right=0;align=left;spacingLeft=6;fontStyle=5;overflow=hidden;labelBorderColor=none;fontSize=16;" parent="KwM0fEK1zE-uCKd_Dp6U-189" vertex="1">
          <mxGeometry x="65" width="90" height="40" as="geometry">
            <mxRectangle width="90" height="40" as="alternateBounds" />
          </mxGeometry>
        </mxCell>
        <mxCell id="KwM0fEK1zE-uCKd_Dp6U-192" value="int NOT NULL" style="shape=partialRectangle;connectable=0;fillColor=none;top=0;left=0;bottom=0;right=0;align=left;spacingLeft=6;fontStyle=1;overflow=hidden;labelBorderColor=none;fontSize=16;" parent="KwM0fEK1zE-uCKd_Dp6U-189" vertex="1">
          <mxGeometry x="155" width="196" height="40" as="geometry">
            <mxRectangle width="196" height="40" as="alternateBounds" />
          </mxGeometry>
        </mxCell>
        <mxCell id="KwM0fEK1zE-uCKd_Dp6U-193" value="" style="shape=tableRow;horizontal=0;startSize=0;swimlaneHead=0;swimlaneBody=0;fillColor=none;collapsible=0;dropTarget=0;points=[[0,0.5],[1,0.5]];portConstraint=eastwest;top=0;left=0;right=0;bottom=0;labelBorderColor=none;fontSize=16;" parent="KwM0fEK1zE-uCKd_Dp6U-184" vertex="1">
          <mxGeometry y="100" width="351" height="30" as="geometry" />
        </mxCell>
        <mxCell id="KwM0fEK1zE-uCKd_Dp6U-194" value="" style="shape=partialRectangle;connectable=0;fillColor=none;top=0;left=0;bottom=0;right=0;editable=1;overflow=hidden;labelBorderColor=none;fontSize=16;" parent="KwM0fEK1zE-uCKd_Dp6U-193" vertex="1">
          <mxGeometry width="65" height="30" as="geometry">
            <mxRectangle width="65" height="30" as="alternateBounds" />
          </mxGeometry>
        </mxCell>
        <mxCell id="KwM0fEK1zE-uCKd_Dp6U-195" value="Quantity" style="shape=partialRectangle;connectable=0;fillColor=none;top=0;left=0;bottom=0;right=0;align=left;spacingLeft=6;overflow=hidden;labelBorderColor=none;fontSize=16;" parent="KwM0fEK1zE-uCKd_Dp6U-193" vertex="1">
          <mxGeometry x="65" width="90" height="30" as="geometry">
            <mxRectangle width="90" height="30" as="alternateBounds" />
          </mxGeometry>
        </mxCell>
        <mxCell id="KwM0fEK1zE-uCKd_Dp6U-196" value="tinyint NOT NULL" style="shape=partialRectangle;connectable=0;fillColor=none;top=0;left=0;bottom=0;right=0;align=left;spacingLeft=6;overflow=hidden;labelBorderColor=none;fontSize=16;" parent="KwM0fEK1zE-uCKd_Dp6U-193" vertex="1">
          <mxGeometry x="155" width="196" height="30" as="geometry">
            <mxRectangle width="196" height="30" as="alternateBounds" />
          </mxGeometry>
        </mxCell>
        <mxCell id="KwM0fEK1zE-uCKd_Dp6U-197" value="" style="shape=tableRow;horizontal=0;startSize=0;swimlaneHead=0;swimlaneBody=0;fillColor=none;collapsible=0;dropTarget=0;points=[[0,0.5],[1,0.5]];portConstraint=eastwest;top=0;left=0;right=0;bottom=0;labelBorderColor=none;fontSize=16;" parent="KwM0fEK1zE-uCKd_Dp6U-184" vertex="1">
          <mxGeometry y="130" width="351" height="30" as="geometry" />
        </mxCell>
        <mxCell id="KwM0fEK1zE-uCKd_Dp6U-198" value="" style="shape=partialRectangle;connectable=0;fillColor=none;top=0;left=0;bottom=0;right=0;editable=1;overflow=hidden;labelBorderColor=none;fontSize=16;" parent="KwM0fEK1zE-uCKd_Dp6U-197" vertex="1">
          <mxGeometry width="65" height="30" as="geometry">
            <mxRectangle width="65" height="30" as="alternateBounds" />
          </mxGeometry>
        </mxCell>
        <mxCell id="KwM0fEK1zE-uCKd_Dp6U-199" value="ItemPrice" style="shape=partialRectangle;connectable=0;fillColor=none;top=0;left=0;bottom=0;right=0;align=left;spacingLeft=6;overflow=hidden;labelBorderColor=none;fontSize=16;fontStyle=2" parent="KwM0fEK1zE-uCKd_Dp6U-197" vertex="1">
          <mxGeometry x="65" width="90" height="30" as="geometry">
            <mxRectangle width="90" height="30" as="alternateBounds" />
          </mxGeometry>
        </mxCell>
        <mxCell id="KwM0fEK1zE-uCKd_Dp6U-200" value="smallmoney NOT" style="shape=partialRectangle;connectable=0;fillColor=none;top=0;left=0;bottom=0;right=0;align=left;spacingLeft=6;overflow=hidden;labelBorderColor=none;fontSize=16;fontStyle=2" parent="KwM0fEK1zE-uCKd_Dp6U-197" vertex="1">
          <mxGeometry x="155" width="196" height="30" as="geometry">
            <mxRectangle width="196" height="30" as="alternateBounds" />
          </mxGeometry>
        </mxCell>
        <mxCell id="KwM0fEK1zE-uCKd_Dp6U-110" value="Location" style="shape=table;startSize=30;container=1;collapsible=1;childLayout=tableLayout;fixedRows=1;rowLines=0;fontStyle=1;align=center;resizeLast=1;labelBorderColor=none;fontSize=16;fillColor=none;" parent="KwM0fEK1zE-uCKd_Dp6U-1" vertex="1">
          <mxGeometry x="-2006" y="2221" width="365" height="260" as="geometry" />
        </mxCell>
        <mxCell id="KwM0fEK1zE-uCKd_Dp6U-111" value="" style="shape=tableRow;horizontal=0;startSize=0;swimlaneHead=0;swimlaneBody=0;fillColor=none;collapsible=0;dropTarget=0;points=[[0,0.5],[1,0.5]];portConstraint=eastwest;top=0;left=0;right=0;bottom=1;labelBorderColor=none;fontSize=16;" parent="KwM0fEK1zE-uCKd_Dp6U-110" vertex="1">
          <mxGeometry y="30" width="365" height="30" as="geometry" />
        </mxCell>
        <mxCell id="KwM0fEK1zE-uCKd_Dp6U-112" value="PK" style="shape=partialRectangle;connectable=0;fillColor=none;top=0;left=0;bottom=0;right=0;fontStyle=1;overflow=hidden;labelBorderColor=none;fontSize=16;" parent="KwM0fEK1zE-uCKd_Dp6U-111" vertex="1">
          <mxGeometry width="40" height="30" as="geometry">
            <mxRectangle width="40" height="30" as="alternateBounds" />
          </mxGeometry>
        </mxCell>
        <mxCell id="KwM0fEK1zE-uCKd_Dp6U-113" value="LocationID" style="shape=partialRectangle;connectable=0;fillColor=none;top=0;left=0;bottom=0;right=0;align=left;spacingLeft=6;fontStyle=5;overflow=hidden;labelBorderColor=none;fontSize=16;" parent="KwM0fEK1zE-uCKd_Dp6U-111" vertex="1">
          <mxGeometry x="40" width="125" height="30" as="geometry">
            <mxRectangle width="125" height="30" as="alternateBounds" />
          </mxGeometry>
        </mxCell>
        <mxCell id="KwM0fEK1zE-uCKd_Dp6U-114" value="int NOT NULL" style="shape=partialRectangle;connectable=0;fillColor=none;top=0;left=0;bottom=0;right=0;align=left;spacingLeft=6;fontStyle=1;overflow=hidden;labelBorderColor=none;fontSize=16;" parent="KwM0fEK1zE-uCKd_Dp6U-111" vertex="1">
          <mxGeometry x="165" width="200" height="30" as="geometry">
            <mxRectangle width="200" height="30" as="alternateBounds" />
          </mxGeometry>
        </mxCell>
        <mxCell id="KwM0fEK1zE-uCKd_Dp6U-115" value="" style="shape=tableRow;horizontal=0;startSize=0;swimlaneHead=0;swimlaneBody=0;fillColor=none;collapsible=0;dropTarget=0;points=[[0,0.5],[1,0.5]];portConstraint=eastwest;top=0;left=0;right=0;bottom=0;labelBorderColor=none;fontSize=16;" parent="KwM0fEK1zE-uCKd_Dp6U-110" vertex="1">
          <mxGeometry y="60" width="365" height="30" as="geometry" />
        </mxCell>
        <mxCell id="KwM0fEK1zE-uCKd_Dp6U-116" value="" style="shape=partialRectangle;connectable=0;fillColor=none;top=0;left=0;bottom=0;right=0;editable=1;overflow=hidden;labelBorderColor=none;fontSize=16;" parent="KwM0fEK1zE-uCKd_Dp6U-115" vertex="1">
          <mxGeometry width="40" height="30" as="geometry">
            <mxRectangle width="40" height="30" as="alternateBounds" />
          </mxGeometry>
        </mxCell>
        <mxCell id="KwM0fEK1zE-uCKd_Dp6U-117" value="UnitNumber" style="shape=partialRectangle;connectable=0;fillColor=none;top=0;left=0;bottom=0;right=0;align=left;spacingLeft=6;overflow=hidden;labelBorderColor=none;fontSize=16;" parent="KwM0fEK1zE-uCKd_Dp6U-115" vertex="1">
          <mxGeometry x="40" width="125" height="30" as="geometry">
            <mxRectangle width="125" height="30" as="alternateBounds" />
          </mxGeometry>
        </mxCell>
        <mxCell id="KwM0fEK1zE-uCKd_Dp6U-118" value="varchar(10) NULL" style="shape=partialRectangle;connectable=0;fillColor=none;top=0;left=0;bottom=0;right=0;align=left;spacingLeft=6;overflow=hidden;labelBorderColor=none;fontSize=16;" parent="KwM0fEK1zE-uCKd_Dp6U-115" vertex="1">
          <mxGeometry x="165" width="200" height="30" as="geometry">
            <mxRectangle width="200" height="30" as="alternateBounds" />
          </mxGeometry>
        </mxCell>
        <mxCell id="usXdO60dDuQ6bgnjI01I-8" style="shape=tableRow;horizontal=0;startSize=0;swimlaneHead=0;swimlaneBody=0;fillColor=none;collapsible=0;dropTarget=0;points=[[0,0.5],[1,0.5]];portConstraint=eastwest;top=0;left=0;right=0;bottom=0;labelBorderColor=none;fontSize=16;" parent="KwM0fEK1zE-uCKd_Dp6U-110" vertex="1">
          <mxGeometry y="90" width="365" height="30" as="geometry" />
        </mxCell>
        <mxCell id="usXdO60dDuQ6bgnjI01I-9" style="shape=partialRectangle;connectable=0;fillColor=none;top=0;left=0;bottom=0;right=0;editable=1;overflow=hidden;labelBorderColor=none;fontSize=16;" parent="usXdO60dDuQ6bgnjI01I-8" vertex="1">
          <mxGeometry width="40" height="30" as="geometry">
            <mxRectangle width="40" height="30" as="alternateBounds" />
          </mxGeometry>
        </mxCell>
        <mxCell id="usXdO60dDuQ6bgnjI01I-10" value="BuildingName" style="shape=partialRectangle;connectable=0;fillColor=none;top=0;left=0;bottom=0;right=0;align=left;spacingLeft=6;overflow=hidden;labelBorderColor=none;fontSize=16;" parent="usXdO60dDuQ6bgnjI01I-8" vertex="1">
          <mxGeometry x="40" width="125" height="30" as="geometry">
            <mxRectangle width="125" height="30" as="alternateBounds" />
          </mxGeometry>
        </mxCell>
        <mxCell id="usXdO60dDuQ6bgnjI01I-11" value="varchar(500) NULL" style="shape=partialRectangle;connectable=0;fillColor=none;top=0;left=0;bottom=0;right=0;align=left;spacingLeft=6;overflow=hidden;labelBorderColor=none;fontSize=16;" parent="usXdO60dDuQ6bgnjI01I-8" vertex="1">
          <mxGeometry x="165" width="200" height="30" as="geometry">
            <mxRectangle width="200" height="30" as="alternateBounds" />
          </mxGeometry>
        </mxCell>
        <mxCell id="usXdO60dDuQ6bgnjI01I-4" style="shape=tableRow;horizontal=0;startSize=0;swimlaneHead=0;swimlaneBody=0;fillColor=none;collapsible=0;dropTarget=0;points=[[0,0.5],[1,0.5]];portConstraint=eastwest;top=0;left=0;right=0;bottom=0;labelBorderColor=none;fontSize=16;" parent="KwM0fEK1zE-uCKd_Dp6U-110" vertex="1">
          <mxGeometry y="120" width="365" height="30" as="geometry" />
        </mxCell>
        <mxCell id="usXdO60dDuQ6bgnjI01I-5" style="shape=partialRectangle;connectable=0;fillColor=none;top=0;left=0;bottom=0;right=0;editable=1;overflow=hidden;labelBorderColor=none;fontSize=16;" parent="usXdO60dDuQ6bgnjI01I-4" vertex="1">
          <mxGeometry width="40" height="30" as="geometry">
            <mxRectangle width="40" height="30" as="alternateBounds" />
          </mxGeometry>
        </mxCell>
        <mxCell id="usXdO60dDuQ6bgnjI01I-6" value="StreetNumber" style="shape=partialRectangle;connectable=0;fillColor=none;top=0;left=0;bottom=0;right=0;align=left;spacingLeft=6;overflow=hidden;labelBorderColor=none;fontSize=16;" parent="usXdO60dDuQ6bgnjI01I-4" vertex="1">
          <mxGeometry x="40" width="125" height="30" as="geometry">
            <mxRectangle width="125" height="30" as="alternateBounds" />
          </mxGeometry>
        </mxCell>
        <mxCell id="usXdO60dDuQ6bgnjI01I-7" value="smallint NOT NULL" style="shape=partialRectangle;connectable=0;fillColor=none;top=0;left=0;bottom=0;right=0;align=left;spacingLeft=6;overflow=hidden;labelBorderColor=none;fontSize=16;" parent="usXdO60dDuQ6bgnjI01I-4" vertex="1">
          <mxGeometry x="165" width="200" height="30" as="geometry">
            <mxRectangle width="200" height="30" as="alternateBounds" />
          </mxGeometry>
        </mxCell>
        <mxCell id="KwM0fEK1zE-uCKd_Dp6U-240" style="shape=tableRow;horizontal=0;startSize=0;swimlaneHead=0;swimlaneBody=0;fillColor=none;collapsible=0;dropTarget=0;points=[[0,0.5],[1,0.5]];portConstraint=eastwest;top=0;left=0;right=0;bottom=0;labelBorderColor=none;fontSize=16;" parent="KwM0fEK1zE-uCKd_Dp6U-110" vertex="1">
          <mxGeometry y="150" width="365" height="30" as="geometry" />
        </mxCell>
        <mxCell id="KwM0fEK1zE-uCKd_Dp6U-241" style="shape=partialRectangle;connectable=0;fillColor=none;top=0;left=0;bottom=0;right=0;editable=1;overflow=hidden;labelBorderColor=none;fontSize=16;" parent="KwM0fEK1zE-uCKd_Dp6U-240" vertex="1">
          <mxGeometry width="40" height="30" as="geometry">
            <mxRectangle width="40" height="30" as="alternateBounds" />
          </mxGeometry>
        </mxCell>
        <mxCell id="KwM0fEK1zE-uCKd_Dp6U-242" value="Street" style="shape=partialRectangle;connectable=0;fillColor=none;top=0;left=0;bottom=0;right=0;align=left;spacingLeft=6;overflow=hidden;labelBorderColor=none;fontSize=16;" parent="KwM0fEK1zE-uCKd_Dp6U-240" vertex="1">
          <mxGeometry x="40" width="125" height="30" as="geometry">
            <mxRectangle width="125" height="30" as="alternateBounds" />
          </mxGeometry>
        </mxCell>
        <mxCell id="KwM0fEK1zE-uCKd_Dp6U-243" value="varchar(100) NOT NULL" style="shape=partialRectangle;connectable=0;fillColor=none;top=0;left=0;bottom=0;right=0;align=left;spacingLeft=6;overflow=hidden;labelBorderColor=none;fontSize=16;" parent="KwM0fEK1zE-uCKd_Dp6U-240" vertex="1">
          <mxGeometry x="165" width="200" height="30" as="geometry">
            <mxRectangle width="200" height="30" as="alternateBounds" />
          </mxGeometry>
        </mxCell>
        <mxCell id="KwM0fEK1zE-uCKd_Dp6U-236" style="shape=tableRow;horizontal=0;startSize=0;swimlaneHead=0;swimlaneBody=0;fillColor=none;collapsible=0;dropTarget=0;points=[[0,0.5],[1,0.5]];portConstraint=eastwest;top=0;left=0;right=0;bottom=0;labelBorderColor=none;fontSize=16;" parent="KwM0fEK1zE-uCKd_Dp6U-110" vertex="1">
          <mxGeometry y="180" width="365" height="30" as="geometry" />
        </mxCell>
        <mxCell id="KwM0fEK1zE-uCKd_Dp6U-237" style="shape=partialRectangle;connectable=0;fillColor=none;top=0;left=0;bottom=0;right=0;editable=1;overflow=hidden;labelBorderColor=none;fontSize=16;" parent="KwM0fEK1zE-uCKd_Dp6U-236" vertex="1">
          <mxGeometry width="40" height="30" as="geometry">
            <mxRectangle width="40" height="30" as="alternateBounds" />
          </mxGeometry>
        </mxCell>
        <mxCell id="KwM0fEK1zE-uCKd_Dp6U-238" value="Suburb" style="shape=partialRectangle;connectable=0;fillColor=none;top=0;left=0;bottom=0;right=0;align=left;spacingLeft=6;overflow=hidden;labelBorderColor=none;fontSize=16;" parent="KwM0fEK1zE-uCKd_Dp6U-236" vertex="1">
          <mxGeometry x="40" width="125" height="30" as="geometry">
            <mxRectangle width="125" height="30" as="alternateBounds" />
          </mxGeometry>
        </mxCell>
        <mxCell id="KwM0fEK1zE-uCKd_Dp6U-239" value="varchar(100) NOT NULL" style="shape=partialRectangle;connectable=0;fillColor=none;top=0;left=0;bottom=0;right=0;align=left;spacingLeft=6;overflow=hidden;labelBorderColor=none;fontSize=16;" parent="KwM0fEK1zE-uCKd_Dp6U-236" vertex="1">
          <mxGeometry x="165" width="200" height="30" as="geometry">
            <mxRectangle width="200" height="30" as="alternateBounds" />
          </mxGeometry>
        </mxCell>
        <mxCell id="KwM0fEK1zE-uCKd_Dp6U-232" style="shape=tableRow;horizontal=0;startSize=0;swimlaneHead=0;swimlaneBody=0;fillColor=none;collapsible=0;dropTarget=0;points=[[0,0.5],[1,0.5]];portConstraint=eastwest;top=0;left=0;right=0;bottom=0;labelBorderColor=none;fontSize=16;" parent="KwM0fEK1zE-uCKd_Dp6U-110" vertex="1">
          <mxGeometry y="210" width="365" height="30" as="geometry" />
        </mxCell>
        <mxCell id="KwM0fEK1zE-uCKd_Dp6U-233" style="shape=partialRectangle;connectable=0;fillColor=none;top=0;left=0;bottom=0;right=0;editable=1;overflow=hidden;labelBorderColor=none;fontSize=16;" parent="KwM0fEK1zE-uCKd_Dp6U-232" vertex="1">
          <mxGeometry width="40" height="30" as="geometry">
            <mxRectangle width="40" height="30" as="alternateBounds" />
          </mxGeometry>
        </mxCell>
        <mxCell id="KwM0fEK1zE-uCKd_Dp6U-234" value="City" style="shape=partialRectangle;connectable=0;fillColor=none;top=0;left=0;bottom=0;right=0;align=left;spacingLeft=6;overflow=hidden;labelBorderColor=none;fontSize=16;" parent="KwM0fEK1zE-uCKd_Dp6U-232" vertex="1">
          <mxGeometry x="40" width="125" height="30" as="geometry">
            <mxRectangle width="125" height="30" as="alternateBounds" />
          </mxGeometry>
        </mxCell>
        <mxCell id="KwM0fEK1zE-uCKd_Dp6U-235" value="varchar(100) NOT NULL" style="shape=partialRectangle;connectable=0;fillColor=none;top=0;left=0;bottom=0;right=0;align=left;spacingLeft=6;overflow=hidden;labelBorderColor=none;fontSize=16;" parent="KwM0fEK1zE-uCKd_Dp6U-232" vertex="1">
          <mxGeometry x="165" width="200" height="30" as="geometry">
            <mxRectangle width="200" height="30" as="alternateBounds" />
          </mxGeometry>
        </mxCell>
      </root>
    </mxGraphModel>
  </diagram>
</mxfile>
